<svg xmlns="http://www.w3.org/2000/svg" width="53" height="54" viewBox="0 0 53 54">
  <g id="Group_540" data-name="Group 540" transform="translate(-0.131 0.275)">
    <ellipse id="Ellipse_2" data-name="Ellipse 2" cx="26.5" cy="27" rx="26.5" ry="27" transform="translate(0.131 -0.275)" fill="#97bf27"/>
    <path id="Icon_awesome-check" data-name="Icon awesome-check" d="M8.828,23.579.381,15.132a1.3,1.3,0,0,1,0-1.838l1.838-1.838a1.3,1.3,0,0,1,1.838,0l5.691,5.691L21.936,4.958a1.3,1.3,0,0,1,1.838,0L25.612,6.8a1.3,1.3,0,0,1,0,1.838L10.666,23.579A1.3,1.3,0,0,1,8.828,23.579Z" transform="translate(13.635 12.456)" fill="#fff"/>
  </g>
</svg>
