<svg xmlns="http://www.w3.org/2000/svg" xmlns:xlink="http://www.w3.org/1999/xlink" width="160" height="160" viewBox="0 0 160 160">
  <defs>
    <clipPath id="clip-path">
      <rect id="Rectangle_397" data-name="Rectangle 397" width="160" height="160" transform="translate(0.001)" fill="none"/>
    </clipPath>
  </defs>
  <g id="Group_581" data-name="Group 581" transform="translate(-0.284 -0.283)">
    <g id="Group_580" data-name="Group 580" transform="translate(0.283 0.283)" clip-path="url(#clip-path)">
      <path id="Path_190" data-name="Path 190" d="M159.694,79.847A79.847,79.847,0,1,1,79.847,0a79.847,79.847,0,0,1,79.847,79.847" transform="translate(-0.133 -0.133)" fill="#fff"/>
      <path id="Path_191" data-name="Path 191" d="M375.193,310.6a63.4,63.4,0,1,1-63.4-63.4,63.4,63.4,0,0,1,63.4,63.4" transform="translate(-232.078 -230.963)" fill="#fff"/>
      <path id="Path_192" data-name="Path 192" d="M94.7,15.908A78.794,78.794,0,1,0,173.5,94.7,78.794,78.794,0,0,0,94.7,15.908m0,142.116a63.4,63.4,0,1,1,63.4-63.4,63.4,63.4,0,0,1-63.4,63.4" transform="translate(-14.988 -14.988)" fill="#007198"/>
      <path id="Path_193" data-name="Path 193" d="M912.781,477.034h-.8V458.279H859.6v-.8h53.183Z" transform="translate(-802.818 -427.321)" fill="#007198"/>
      <path id="Path_194" data-name="Path 194" d="M1597.232,1405.348h-.809l.245-4.408.52.241c7.73,3.575,10.849,3.624,11.724,3.526l-.341-5.009,1.576.1.062-3.006,1.809-1.508.369-8.434a29.432,29.432,0,0,1-5.795.674,16.467,16.467,0,0,1-6.847-1.038l-.258-.117.527-6.565.8.068-.477,5.987a16.944,16.944,0,0,0,6.23.864,25.035,25.035,0,0,0,6.123-.783l.548-.175-.434,9.91-1.8,1.5-.072,3.477-1.5-.095.323,4.73-.262.112c-.267.114-2.839.97-12.122-3.251Z" transform="translate(-1490.86 -1288.583)" fill="#007198"/>
      <path id="Path_195" data-name="Path 195" d="M1299.256,856.7a75.587,75.587,0,0,0,.373-8.936,17.185,17.185,0,0,1,.014-2.094,3.8,3.8,0,0,0-.246-1.958c-.507-1.127-.281-7.02.294-12.544h.785c-.444,2.951-1.005,11.111-.383,12.145a3.857,3.857,0,0,1,.351,2.4,16.264,16.264,0,0,0-.014,2,69.572,69.572,0,0,1-.414,9.241Z" transform="translate(-1213.238 -776.273)" fill="#007198"/>
      <path id="Path_196" data-name="Path 196" d="M1208.483,1332.618a55.11,55.11,0,0,1-.522,5.676,72.744,72.744,0,0,1-3.433,10.513,4.8,4.8,0,0,1-1.54,2.105c-.338.135-.465.187-.377,6.077.042,2.778.144,4.27.145,4.3h.847c-.114-3.811-.293-8.694-.138-9.722a5.871,5.871,0,0,0,1.791-2.42,73.7,73.7,0,0,0,3.486-10.665,53.21,53.21,0,0,0,.542-5.811Z" transform="translate(-1123.096 -1244.521)" fill="#007198"/>
      <path id="Path_197" data-name="Path 197" d="M1038.876,1292.143c-.175-.134-15.609-12.578-21.2-15.1a13.218,13.218,0,0,0-2.378-.842c-1.2-.315-1.918-.505-5.419-3.3-.982-.785-7.643-7.1-8.332-7.905l.609-.522c.69.8,7.3,7.064,8.224,7.8,3.369,2.691,4.029,2.865,5.122,3.152a14.147,14.147,0,0,1,2.5.887c5.677,2.556,20.645,14.642,21.36,15.19Z" transform="translate(-935.368 -1180.89)" fill="#007198"/>
      <rect id="Rectangle_393" data-name="Rectangle 393" width="0.802" height="10.003" transform="translate(56.779 49.01)" fill="#007198"/>
      <path id="Path_198" data-name="Path 198" d="M376.165,1087.317l-7.032.888-9.5-1.46v-5.55l4.089-11.034H386.6c-.017-.063-.109-.6-.133-.8h-23.3l-4.308,11.625-.025.068v6.381l10.233,1.573.056.009,6.337-.8.931,8.282H385.3v-.8h-8.2Z" transform="translate(-335.21 -998.692)" fill="#007198"/>
      <path id="Path_199" data-name="Path 199" d="M1256.326,1045.176a.35.35,0,0,0-.055-.192.341.341,0,0,0-.206-.039l-1.119,0a.267.267,0,0,0-.18.042.319.319,0,0,0-.052.188h-.048l0-.727h.048a.322.322,0,0,0,.051.187.262.262,0,0,0,.18.044l.5,0,0-.8-.5,0a.265.265,0,0,0-.18.042.316.316,0,0,0-.052.188h-.048l0-.727h.048a.318.318,0,0,0,.051.188.261.261,0,0,0,.18.043l1.149,0a.257.257,0,0,0,.18-.042.342.342,0,0,0,.053-.187h.048l0,.727h-.048a.335.335,0,0,0-.054-.193.346.346,0,0,0-.207-.038l-.5,0,0,.8.532,0a.258.258,0,0,0,.181-.043.332.332,0,0,0,.052-.186h.048l0,.727Z" transform="translate(-1171.73 -974.434)" fill="#007198"/>
      <path id="Path_200" data-name="Path 200" d="M1254.777,1007.349h.048a.434.434,0,0,0,.013.111.079.079,0,0,0,.078.059.161.161,0,0,0,.049-.007l.062-.021.972-.375-.723-.28-.317.121a.2.2,0,0,0-.115.1.348.348,0,0,0-.019.124h-.048l0-.7h.048a.516.516,0,0,0,.013.136.085.085,0,0,0,.088.059.146.146,0,0,0,.04,0l.07-.025.97-.375-.875-.331a.759.759,0,0,0-.132-.039.282.282,0,0,0-.053-.007.1.1,0,0,0-.1.069.336.336,0,0,0-.019.115h-.048l0-.52h.048a.3.3,0,0,0,.031.108.226.226,0,0,0,.126.1l.769.277.3.107.466.168v.04l-.3.114-.8.3,1.09.407v.04l-.536.193-.606.219a3.184,3.184,0,0,0-.46.189.2.2,0,0,0-.092.169h-.048Z" transform="translate(-1171.832 -939.118)" fill="#007198"/>
      <path id="Path_201" data-name="Path 201" d="M1254.925,978.4h.048a.4.4,0,0,0,.013.138.067.067,0,0,0,.071.047.15.15,0,0,0,.041-.008.275.275,0,0,0,.065-.034l.559-.384-.564-.378a.258.258,0,0,0-.061-.03.144.144,0,0,0-.035-.007.072.072,0,0,0-.073.06.481.481,0,0,0-.013.123h-.048l0-.573h.048a.266.266,0,0,0,.046.142.938.938,0,0,0,.247.219l.581.389.5,0c.1,0,.162-.016.187-.049a.461.461,0,0,0,.047-.22h.048l0,.8h-.048a.39.39,0,0,0-.052-.221.328.328,0,0,0-.211-.044l-.448,0-.5.341a2.962,2.962,0,0,0-.329.248.252.252,0,0,0-.078.173h-.048Z" transform="translate(-1171.969 -912.78)" fill="#007198"/>
      <path id="Path_202" data-name="Path 202" d="M1277.218,973.331a.138.138,0,0,1-.1.042.135.135,0,0,1-.1-.043.147.147,0,0,1,0-.205.135.135,0,0,1,.1-.042.139.139,0,0,1,.1.042.148.148,0,0,1,0,.207" transform="translate(-1192.563 -908.79)" fill="#007198"/>
      <path id="Path_203" data-name="Path 203" d="M1256.372,944.324a8.223,8.223,0,0,0-.7-.638.73.73,0,0,0-.436-.169.375.375,0,0,0-.285.1.344.344,0,0,0-.1.244.358.358,0,0,0,.125.285.733.733,0,0,0,.213.116l-.012.055a.656.656,0,0,1-.4-.218.544.544,0,0,1-.112-.329.473.473,0,0,1,.136-.349.449.449,0,0,1,.329-.133.655.655,0,0,1,.4.146,8.661,8.661,0,0,1,.679.631l0-.588a.369.369,0,0,0-.028-.172.379.379,0,0,0-.141-.113l.015-.033.351.143,0,1.022Z" transform="translate(-1171.729 -880.848)" fill="#007198"/>
      <path id="Path_204" data-name="Path 204" d="M1254.856,926.819h.015l1.518.005q.1,0,.124-.052a.53.53,0,0,0,.032-.2h.036l0,.723h-.038a.429.429,0,0,0-.041-.2.176.176,0,0,0-.147-.048l-1.168,0a.223.223,0,0,0-.092.015.066.066,0,0,0-.032.066.286.286,0,0,0,.018.087c.012.035.025.069.038.1h-.035l-.234-.47v-.015l.01-.006" transform="translate(-1171.9 -865.363)" fill="#007198"/>
      <path id="Path_205" data-name="Path 205" d="M1410.1,1500.574a.352.352,0,0,0,.187.072c.036-.006.088-.053.156-.141l.676-.891a.265.265,0,0,0,.075-.17.319.319,0,0,0-.118-.155l.029-.038.579.439-.029.037a.328.328,0,0,0-.18-.072c-.04.005-.088.044-.143.118l-.3.4.634.481.3-.4a.264.264,0,0,0,.075-.169.319.319,0,0,0-.119-.155l.029-.038.579.439-.029.039a.317.317,0,0,0-.18-.072c-.04,0-.087.044-.144.118l-.694.916q-.085.112-.074.169a.343.343,0,0,0,.118.155l-.029.038-.579-.439.029-.038a.343.343,0,0,0,.187.072q.054-.01.155-.142l.3-.4-.634-.481-.321.424a.258.258,0,0,0-.075.17.332.332,0,0,0,.118.154l-.029.038-.579-.439Z" transform="translate(-1316.843 -1400.122)" fill="#007198"/>
      <path id="Path_206" data-name="Path 206" d="M1442.491,1516.633l-.029.038a.423.423,0,0,0-.1-.056.078.078,0,0,0-.094.026.171.171,0,0,0-.024.044c-.006.016-.013.036-.021.062l-.285,1,.658-.409.094-.326a.2.2,0,0,0-.013-.154.35.35,0,0,0-.087-.09l.029-.038.559.424-.029.038a.5.5,0,0,0-.116-.071.085.085,0,0,0-.1.035.133.133,0,0,0-.02.034c0,.011-.011.035-.022.071l-.283,1,.791-.5a.707.707,0,0,0,.111-.082.289.289,0,0,0,.037-.038.1.1,0,0,0,.005-.121.332.332,0,0,0-.08-.085l.029-.038.415.314-.029.039a.3.3,0,0,0-.1-.04.227.227,0,0,0-.156.04l-.684.448-.264.173-.414.271-.032-.025.087-.3.239-.817-.98.626-.031-.024.168-.544.19-.616a3.24,3.24,0,0,0,.125-.481.2.2,0,0,0-.08-.175l.029-.038Z" transform="translate(-1346.239 -1415.992)" fill="#007198"/>
      <path id="Path_207" data-name="Path 207" d="M1470.055,1539.67l-.029.038a.4.4,0,0,0-.118-.072.067.067,0,0,0-.079.028.137.137,0,0,0-.019.037.268.268,0,0,0-.012.073l-.03.677.642-.224a.257.257,0,0,0,.06-.03.138.138,0,0,0,.027-.024.072.072,0,0,0,0-.094.481.481,0,0,0-.09-.085l.029-.038.457.346-.029.039a.264.264,0,0,0-.141-.049.941.941,0,0,0-.324.066l-.66.23-.3.4c-.06.08-.085.139-.074.178a.455.455,0,0,0,.148.17l-.029.038-.637-.483.029-.038a.394.394,0,0,0,.207.092c.04-.005.094-.052.161-.142l.271-.358.026-.6a2.989,2.989,0,0,0,0-.412.254.254,0,0,0-.092-.167l.029-.038Z" transform="translate(-1371.723 -1437.451)" fill="#007198"/>
      <path id="Path_208" data-name="Path 208" d="M1484.785,1573.97a.139.139,0,0,1,.028-.107.136.136,0,0,1,.095-.054.146.146,0,0,1,.107.029.143.143,0,0,1,.057.1.137.137,0,0,1-.028.106.143.143,0,0,1-.2.027.141.141,0,0,1-.057-.1" transform="translate(-1386.612 -1469.743)" fill="#007198"/>
      <path id="Path_209" data-name="Path 209" d="M1499.578,1569.035a.847.847,0,0,1-.176.486,1.124,1.124,0,0,1-.293.267,1.1,1.1,0,0,1-.383.153.986.986,0,0,1-.489-.037,1.718,1.718,0,0,1-.326-.152l.021-.048a1.56,1.56,0,0,0,.215.082.782.782,0,0,0,.295.034,1.068,1.068,0,0,0,.345-.1,1.051,1.051,0,0,0,.24-.148h-.055a.655.655,0,0,1-.342-.119.43.43,0,0,1-.184-.33.546.546,0,0,1,.117-.365.649.649,0,0,1,.388-.261.529.529,0,0,1,.627.535m-.625.463a.233.233,0,0,0,.133,0,.512.512,0,0,0,.064-.07c.035-.042.062-.076.083-.1a.885.885,0,0,0,.186-.394.285.285,0,0,0-.111-.29.237.237,0,0,0-.23-.033.588.588,0,0,0-.264.22.8.8,0,0,0-.148.315.263.263,0,0,0,.114.282.388.388,0,0,0,.173.071" transform="translate(-1398.87 -1464.776)" fill="#007198"/>
      <path id="Path_210" data-name="Path 210" d="M1517.989,1581.142a1.2,1.2,0,0,1-.239.528,1.4,1.4,0,0,1-.349.329.535.535,0,0,1-.665.019.492.492,0,0,1-.194-.43,1.1,1.1,0,0,1,.257-.627,1.249,1.249,0,0,1,.431-.376.512.512,0,0,1,.578.038.5.5,0,0,1,.18.518m-.868.823a1.9,1.9,0,0,0,.411-.426,2.274,2.274,0,0,0,.262-.415q.142-.319-.031-.45t-.449.1a2.309,2.309,0,0,0-.33.366,1.95,1.95,0,0,0-.242.391q-.127.3.052.44a.262.262,0,0,0,.329-.005" transform="translate(-1416.269 -1476.005)" fill="#007198"/>
      <path id="Path_211" data-name="Path 211" d="M1533.231,1594.066l-.009.012-.917,1.21c-.039.051-.05.095-.033.13a.531.531,0,0,0,.138.144l-.021.028-.576-.437.023-.03a.422.422,0,0,0,.187.089q.058,0,.126-.089l.706-.931a.216.216,0,0,0,.043-.082.067.067,0,0,0-.034-.065.293.293,0,0,0-.08-.038c-.036-.011-.069-.021-.1-.029l.021-.028.517.1.012.009a.026.026,0,0,1,0,.011" transform="translate(-1430.528 -1488.551)" fill="#007198"/>
      <path id="Path_212" data-name="Path 212" d="M691.957,1381.813h-1.582a.939.939,0,0,1-.938-.938v-4.233a3.106,3.106,0,0,0-3.1-3.1H672.183a3.106,3.106,0,0,0-3.1,3.1v4.233a.939.939,0,0,1-.938.938h-1.582a3.106,3.106,0,0,0-3.1,3.1V1399.5h31.6v-14.583a3.106,3.106,0,0,0-3.1-3.1m-12.7,7.576c-4.544,0-8.454.539-10.223,1.314a3.4,3.4,0,0,1,.6-.4,6.637,6.637,0,0,0,1.684-1.427,42.1,42.1,0,0,1,7.938-.667h0a42.128,42.128,0,0,1,7.945.668,6.659,6.659,0,0,0,1.682,1.426,3.414,3.414,0,0,1,.6.4c-1.769-.775-5.68-1.314-10.224-1.314m0-2.153h0a46.9,46.9,0,0,0-7.022.488,12.309,12.309,0,0,0,2.49-6.281c0-3.032.759-4.911,4.537-4.911a5.25,5.25,0,0,1,3.144.788,2.776,2.776,0,0,1,.642.656,6.155,6.155,0,0,1,.751,3.467,12.3,12.3,0,0,0,2.491,6.28,47.026,47.026,0,0,0-7.028-.488m13.636,10.1H665.623v-12.418a.939.939,0,0,1,.938-.938h1.582a3.106,3.106,0,0,0,3.1-3.1v-4.233a.939.939,0,0,1,.938-.937H677.2c-3.06.746-3.529,3.265-3.529,5.739,0,2.606-2.7,6.952-4.535,7.932-.936.5-1.847,1.394-1.6,2.4a1.8,1.8,0,0,0,.739,1c1.286.943,4.17,1.469,8.715,1.594,0,.01,0,.02,0,.031a2.265,2.265,0,0,0,4.531,0c0-.01,0-.02,0-.03,5.958-.165,9.059-1.017,9.454-2.595.252-1-.66-1.9-1.6-2.4-1.834-.984-4.536-5.327-4.536-7.932a7.056,7.056,0,0,0-.939-4.067,4.246,4.246,0,0,0-2.62-1.672h5.048a.939.939,0,0,1,.938.938v4.233a3.106,3.106,0,0,0,3.1,3.1h1.582a.939.939,0,0,1,.938.938Z" transform="translate(-619.665 -1282.733)" fill="#002e40"/>
      <path id="Path_213" data-name="Path 213" d="M839.7,1080.325c-.369.035.332,1.587.332,1.587.238.411,1.672.55,1.915.449s.918-.493.932-.746c.062-1.093-1.254-1.962-1.254-1.962a7.576,7.576,0,0,1-1.925.673" transform="translate(-784.135 -1008.304)" fill="#002e40"/>
      <path id="Path_214" data-name="Path 214" d="M640.471,724.045c.761,1.746,2.089.9,2.089.9a2.216,2.216,0,0,1,.825-1.422c.726-.525,1.271.013,1.545.47a21.1,21.1,0,0,1,.666,3.309l5.56-7.494s-3.321-4.731-3.657-5.062a6.913,6.913,0,0,0-2-.655s.832-.255.574-1.587l-1.578.927-1.414.509-1.015-2.411a8.353,8.353,0,0,0-.9,2.339,8.682,8.682,0,0,1,.013,2.084,12,12,0,0,1-.737,2.088,10.558,10.558,0,0,1,.018,3c-.241,1.418-.743,1.255.018,3" transform="translate(-597.822 -664.556)" fill="#002e40"/>
      <path id="Path_215" data-name="Path 215" d="M964.679,1106.681l-2.33-1.461s-2.267,2.409-2.8,3.212.224,2.1.224,2.1.651,1.261.811,1.281a2.316,2.316,0,0,0,1.9-.8c.418-1.042-.514-1.605-.381-1.739s2.579-2.593,2.579-2.593" transform="translate(-895.972 -1032.179)" fill="#002e40"/>
      <path id="Path_216" data-name="Path 216" d="M703.316,830.328l-7.264-1.5,1.967-.875a.644.644,0,0,0,.358-.762l-.246-.878L698,825.3l-1.841-6.1-.354-6.411a7.671,7.671,0,0,0,.758-3.687,17.88,17.88,0,0,1,.712-6.256c.792-3.38-.221-5.5-1.1-6.62a21.485,21.485,0,0,1-1.641-2.491s1.807-.949,1.865-1.7-2.375.014-2.375.014a6.849,6.849,0,0,0-.323-1.686c-.254-.624-2.813.079-3.059.644a4.822,4.822,0,0,0,.012,1.938,15.085,15.085,0,0,0-2.246.826c-.685.379,2.441.548,2.441.548s1.069,1.056,1.135,1.556a2.194,2.194,0,0,1-.678,1.567c-.435.5-1.028,5.7-1.028,5.7a24.308,24.308,0,0,1-4.427,1.9c-1.374.258-2.572-1.422-4.127-.225s-10.916,14.32-10.916,14.32a7.8,7.8,0,0,0-1.7-2.4c-1.005-.839-10.918-6.593-10.918-6.593s-.66-2.734-1.131-5.439c1.813.72.2,4.247,4.47,5.786-1.813-2.052.18-10.389-5.795-10.972-.571-1.6-3.822-3.84-9.636-3.93s-8.7-.885-9.2-1.194-3.283,5.084-3.283,5.084l18.2,12.017a10.477,10.477,0,0,1,1.049-2.225c.373-.347,2.952,2.325,3.083,3.2s.2,1.5.2,1.5l2.785,1.74-.675-4.191,8.476,5.95a49.148,49.148,0,0,0-6,.1c-.749.255.01,1.563,2.2,1.612,2.068.046,6.656.548,7.6,4.454l-.169-.031c-.264-.068-5.4-1.088-12.057-2.306l.044-1.854.638-2.32-2.661-1.656c-.068,3.607-.826,4.862-1.186,5.257-5.324-.952-11.226-1.95-16.276-2.672a3.1,3.1,0,0,0-.27-.638c-.143-.259.59-.522.9-.685s.048-.92-.329-1.738c0,0-2.046-5.054-2.216-5.72s4.911-2.681,4.911-2.681l-8.775-6.092s-1.887,2.334-2.507,2.894c1.182,1.543.272,2.338,2.494,3.974.131.1-.657,1.6-.6,1.874.13.611.708,2.141,1.145,2.351a4.75,4.75,0,0,0,1.942.083c-.662-.8-1.141-1.141-1.141-1.675,0-.513-.339-1.056-.2-1.077.893,1.61,1.623,2.576,2.371,4.146s.809,2.276.52,2.708c-.275.412-.942.586-.828,1.923a67.813,67.813,0,0,0-7.682-.688c-1.515,0-4.813-.175-5.164.878s.075,3.033,11.681,4.913,32.686,5.414,36.873,5.791,19.9,2.306,24.69,3.158,13.436,2.657,13.436,2.657l.126-.7s-5.841-1.579-6.919-3.384m-11.664-15.879.77,5.366,1.9,6.7.463.2s-.346.729-.971.8c-.581.062-.96-.19-1.055.631l-4.94-1.022.173-1.642s1.246-.7,1.18-1.195.376-5.509.558-6.448a16.156,16.156,0,0,1,1.917-3.388m-8.8-8.7c.749-.255.693.808,1.319.992s.626.184.007,1.188l-9.945,9.5s7.87-11.426,8.619-11.68m3.637,1.916c.747-.567,3.618-.885,3.618-.885a4.322,4.322,0,0,1-.669,2.554c-1.463,2.619-3.508,6.347-3.7,7.064-.264.973-1.11,6.194-1.493,8.28-.06.329.492.268.425.422-1.005.257-2.718-.535-2.947.76-2.685-.554-4.946-1.018-6.263-1.286.125-.8.346-2.533-.45-3.024-1-.619-2.2-1.487-2.2-1.487s12.931-11.831,13.678-12.4" transform="translate(-582.217 -737.945)" fill="#002e40"/>
      <path id="Path_217" data-name="Path 217" d="M311.791,248.39a62.008,62.008,0,1,1-24.213,4.888,61.817,61.817,0,0,1,24.213-4.888m0-1.195a63.4,63.4,0,1,0,63.4,63.4,63.4,63.4,0,0,0-63.4-63.4" transform="translate(-232.078 -230.962)" fill="#002e40"/>
      <path id="Path_218" data-name="Path 218" d="M115.057,1421.771l6.1-1.509.42,1.695-6.1,1.51.61,2.465-1.387.343-1.64-6.625,1.387-.343Z" transform="translate(-105.708 -1325.47)" fill="#fff"/>
      <path id="Path_219" data-name="Path 219" d="M97.152,1300.224l1.988-.276c1.135-.158.2-1.951.325-3.343l-2.763.384-.24-1.729,7.637-1.062.241,1.729-2.886.4c-1.134.158-.2,1.951-.325,3.343l3.661-.51.241,1.729-7.637,1.062Z" transform="translate(-90.209 -1208.645)" fill="#fff"/>
      <path id="Path_220" data-name="Path 220" d="M93.437,1193.7l.122,4.011,1.387-.042a3.521,3.521,0,0,0,.486-1.1,3.594,3.594,0,0,0-.058-1.91l1.427-.043a3.592,3.592,0,0,1,.058,1.91,3.51,3.51,0,0,1-.486,1.1l2.036-.062-.123-4.011,1.428-.044.176,5.757-7.706.235-.176-5.756Z" transform="translate(-86.05 -1114.619)" fill="#fff"/>
      <path id="Path_221" data-name="Path 221" d="M104.958,1009.995l3.45.466a6.108,6.108,0,0,1,.346,3.022,4.038,4.038,0,1,1-8-1.081,4.3,4.3,0,0,1,1.075-2.372l1.8.243-.027.2a2.892,2.892,0,0,0-1.43,2.118,2.614,2.614,0,0,0,5.184.586,2.6,2.6,0,0,0-.034-1.1l-1.18-.159-.179,1.324-1.416-.191Z" transform="translate(-94.176 -943.259)" fill="#fff"/>
      <path id="Path_222" data-name="Path 222" d="M123.025,890.3a.3.3,0,0,0-.053-.248l.051-.2,1.537.4a3.389,3.389,0,0,1-2.317,2.87l-1.329.574-.118.459,2.592.666-.435,1.691-7.467-1.918.88-3.426c.432-1.68,1.777-2.634,3.183-2.273a2.485,2.485,0,0,1,1.847,2.7c.617-.212,1.509-.818,1.631-1.29Zm-3.912.282a1.132,1.132,0,0,0-1.364.937l-.446,1.735,2.108.542.474-1.845a1.072,1.072,0,0,0-.772-1.369" transform="translate(-107.972 -830.102)" fill="#fff"/>
      <path id="Path_223" data-name="Path 223" d="M151.57,774.6l-1.41,3.758,1.3.487a3.526,3.526,0,0,0,.866-.831,3.594,3.594,0,0,0,.671-1.789l1.337.5a3.6,3.6,0,0,1-.671,1.789,3.509,3.509,0,0,1-.866.831l1.907.716,1.41-3.758,1.337.5-2.024,5.393-7.219-2.709,2.024-5.393Z" transform="translate(-138.529 -722.983)" fill="#fff"/>
      <path id="Path_224" data-name="Path 224" d="M216.768,693.368l-1.535-.242a3.533,3.533,0,0,1-.769,1.331,3.442,3.442,0,0,1-.657.551l1.406,1.41-.876,1.718-5.55-6.089.67-1.313,8.188.917Zm-2.973-.469-2.482-.391,1.579,1.584a3.4,3.4,0,0,0,.3-.284,3.485,3.485,0,0,0,.6-.908" transform="translate(-195.096 -645.134)" fill="#fff"/>
      <path id="Path_225" data-name="Path 225" d="M247.211,560.11l5.269,3.421L251.529,565l-5.269-3.421-1.383,2.13-1.2-.778L247.4,557.2l1.2.778Z" transform="translate(-227.679 -520.443)" fill="#fff"/>
      <path id="Path_226" data-name="Path 226" d="M359.665,440.994l1.354,1.208-.136.153a3.015,3.015,0,0,0-2.522,1.124c-.627.7-.753,1.3-.389,1.629,1.185,1.057,3.274-3.432,5.644-1.318,1.193,1.064,1.018,2.641-.492,4.333a4.923,4.923,0,0,1-2.446,1.618l-1.354-1.208.136-.152a3.226,3.226,0,0,0,2.6-1.208c.838-.94,1.022-1.673.607-2.043-1.185-1.057-3.275,3.432-5.645,1.318-1.142-1.019-1.039-2.446.275-3.919a4.539,4.539,0,0,1,2.37-1.533" transform="translate(-332.779 -411.93)" fill="#fff"/>
      <path id="Path_227" data-name="Path 227" d="M430.859,353.5l-2.972,2.7.933,1.028a3.529,3.529,0,0,0,1.15-.343,3.6,3.6,0,0,0,1.415-1.284l.96,1.058a3.592,3.592,0,0,1-1.415,1.284,3.5,3.5,0,0,1-1.15.343l1.369,1.508,2.972-2.7.96,1.058-4.265,3.872-5.183-5.709,4.265-3.872Z" transform="translate(-397.586 -329.243)" fill="#fff"/>
      <path id="Path_228" data-name="Path 228" d="M552.3,302.214l-1.255-.916a3.537,3.537,0,0,1-1.292.833,3.444,3.444,0,0,1-.836.19l.607,1.9-1.563,1.128-2.16-7.95,1.2-.863,6.866,4.553Zm-2.431-1.774-2.029-1.481.682,2.129a3.363,3.363,0,0,0,.4-.116,3.481,3.481,0,0,0,.952-.533" transform="translate(-509.797 -277.034)" fill="#fff"/>
      <path id="Path_229" data-name="Path 229" d="M621.821,245.261l1.516-.866,3.115,5.456,2.816-1.608.708,1.24-4.333,2.474Z" transform="translate(-580.785 -228.347)" fill="#fff"/>
      <path id="Path_230" data-name="Path 230" d="M785.637,180.7a3.46,3.46,0,1,1,4.422,1.929,3.3,3.3,0,0,1-4.422-1.929m4,.815a2.182,2.182,0,1,0-2.623-1.334,2.016,2.016,0,0,0,2.623,1.334" transform="translate(-733.536 -164.552)" fill="#fff"/>
      <path id="Path_231" data-name="Path 231" d="M894.554,140.618l-3.232.859.3,1.118a2.935,2.935,0,0,0,.983.186,3,3,0,0,0,1.539-.409l.306,1.15a3,3,0,0,1-1.538.409,2.92,2.92,0,0,1-.983-.186l.742,2.79-1.406.374-1.65-6.209,4.638-1.233Z" transform="translate(-830.844 -130.367)" fill="#fff"/>
      <path id="Path_232" data-name="Path 232" d="M1032.892,116.577l.636,5.2-1.445.177-.636-5.2-2.1.257-.145-1.182,5.647-.691.145,1.182Z" transform="translate(-961.194 -107.649)" fill="#fff"/>
      <path id="Path_233" data-name="Path 233" d="M1125.354,111.562l.06,1.672c.034.954,1.6.331,2.743.555l-.083-2.323,1.454-.052.229,6.422-1.454.052-.086-2.427c-.034-.954-1.6-.331-2.743-.555l.11,3.079-1.454.052-.229-6.422Z" transform="translate(-1049.622 -104.17)" fill="#fff"/>
      <path id="Path_234" data-name="Path 234" d="M1228.88,113.333l-3.339-.179-.062,1.154a2.934,2.934,0,0,0,.877.48,2.993,2.993,0,0,0,1.589.085l-.063,1.188a3,3,0,0,1-1.59-.085,2.923,2.923,0,0,1-.877-.48l-.091,1.695,3.34.179-.064,1.188-4.792-.256.343-6.415,4.792.256Z" transform="translate(-1142.916 -104.614)" fill="#fff"/>
      <path id="Path_235" data-name="Path 235" d="M1387.563,108.661l-1.3,6.145-1.708-.363,1.3-6.145-2.485-.527.3-1.4,6.677,1.418-.3,1.4Z" transform="translate(-1291.914 -99.464)" fill="#fff"/>
      <path id="Path_236" data-name="Path 236" d="M1473.667,145.036a4.151,4.151,0,1,1,2.679,5.132,3.962,3.962,0,0,1-2.679-5.132m3.126,3.775a2.619,2.619,0,1,0-1.446-3.222,2.419,2.419,0,0,0,1.446,3.222" transform="translate(-1376.025 -132.976)" fill="#fff"/>
      <path id="Path_237" data-name="Path 237" d="M1611.518,169.265l1.728.854-.394,5.584,2.364-1.74.022-2.86,1.728.854-.006.984a3.363,3.363,0,0,1,2.759.175c2.287,1.13,1.958,3.408.21,4.694l-3.431,2.516-1.321-.653.024-3.5-2.829,2.118-1.321-.653.467-8.368Zm5.41,8.528,1.526-1.143c1.2-.9,1.431-1.873.546-2.31-.61-.3-1.212-.055-2.056.527l-.017,2.926Z" transform="translate(-1504.52 -158.192)" fill="#fff"/>
      <path id="Path_238" data-name="Path 238" d="M1741.971,270.294l2.065-2.955,1.431,1-4.415,6.32-1.431-1c1.156-1.654,1.054-4.2.755-6.387l-3.246,4.647-1.431-1,4.415-6.32,1.431,1a24.3,24.3,0,0,1,.426,4.7" transform="translate(-1620.915 -247.214)" fill="#fff"/>
      <path id="Path_239" data-name="Path 239" d="M1893.96,401.956a4.152,4.152,0,1,1,.054,5.789,3.962,3.962,0,0,1-.054-5.789m1.069,4.784a2.619,2.619,0,1,0,.176-3.527,2.419,2.419,0,0,0-.176,3.527" transform="translate(-1767.55 -374.352)" fill="#fff"/>
      <path id="Path_240" data-name="Path 240" d="M1974.6,493.573l-2.467-3.166-1.094.853a3.529,3.529,0,0,0,.255,1.173,3.594,3.594,0,0,0,1.175,1.507l-1.127.878a3.589,3.589,0,0,1-1.174-1.507,3.5,3.5,0,0,1-.256-1.172l-2.733,2.13-1.073-1.377,6.081-4.738,3.54,4.543Z" transform="translate(-1836.065 -455.965)" fill="#fff"/>
      <path id="Path_241" data-name="Path 241" d="M2065.588,631.776l-1.763.959c-1.006.547.5,1.9.873,3.243l2.45-1.333.834,1.534-6.774,3.683-.834-1.534,2.561-1.392c1.005-.547-.5-1.9-.873-3.243l-3.248,1.766-.833-1.534,6.774-3.683Z" transform="translate(-1921.859 -588.648)" fill="#fff"/>
      <path id="Path_242" data-name="Path 242" d="M2114.623,790.571l1.2-.993a3.525,3.525,0,0,1-.491-1.457,3.423,3.423,0,0,1,.02-.857l-1.988.124-.71-1.792,8.237-.146.543,1.37-6.1,5.541Zm2.315-1.922,1.933-1.6-2.232.14a3.375,3.375,0,0,0,.016.411,3.489,3.489,0,0,0,.283,1.054" transform="translate(-1972.909 -733.581)" fill="#fff"/>
      <path id="Path_243" data-name="Path 243" d="M2160,880.239a.3.3,0,0,0,.168.19l.052.2-1.535.406a3.389,3.389,0,0,1,.621-3.636l.88-1.15-.122-.458-2.587.685-.447-1.688,7.454-1.974.906,3.42c.444,1.678-.264,3.167-1.667,3.539a2.485,2.485,0,0,1-2.93-1.453,2.9,2.9,0,0,0-.793,1.922Zm3.276-2.157a1.132,1.132,0,0,0,.733-1.484l-.458-1.732-2.1.557.488,1.842a1.073,1.073,0,0,0,1.343.817" transform="translate(-2014.354 -815.158)" fill="#fff"/>
      <path id="Path_244" data-name="Path 244" d="M2186.117,1001.685l4.425-.615a4.312,4.312,0,0,0-2.622-.986l-.187-1.348c.9-.125,1.514-.886,2.253-1.664l-4.426.615-.24-1.729,7.638-1.062.241,1.729c-1.19.165-2.057,1.511-3.249,2.49,1.414.616,2.614,1.674,3.8,1.509l.241,1.73-7.637,1.062Z" transform="translate(-2040.768 -929.159)" fill="#fff"/>
      <path id="Path_245" data-name="Path 245" d="M2203.943,1135.969a4.151,4.151,0,1,1-3.97,4.214,3.962,3.962,0,0,1,3.97-4.214m-2.541,4.191a2.619,2.619,0,1,0,2.569-2.423,2.42,2.42,0,0,0-2.569,2.423" transform="translate(-2054.45 -1060.892)" fill="#fff"/>
      <path id="Path_246" data-name="Path 246" d="M2194.3,1280.4l3.58.423-.2,1.734-7.656-.905.2-1.734c2,.237,4.2-1.056,5.987-2.352l-5.63-.666.205-1.734,7.656.905-.205,1.734a24.286,24.286,0,0,1-3.937,2.594" transform="translate(-2045.154 -1190.874)" fill="#fff"/>
      <path id="Path_247" data-name="Path 247" d="M2183.36,1411.765l-.464,1.917-3.923.882,3.085,2.578-.464,1.917-6.6-5.516.464-1.917,1.8,1.51Z" transform="translate(-2031.128 -1318.299)" fill="#fff"/>
      <path id="Path_248" data-name="Path 248" d="M938.654,1803.284v1.25c0,.714,1.187.29,2.034.487v-1.738h1.088v4.8h-1.088v-1.815c0-.713-1.187-.29-2.034-.487v2.3h-1.088v-4.8Z" transform="translate(-875.625 -1684.026)" fill="#002e40"/>
      <path id="Path_249" data-name="Path 249" d="M1014.893,1808.087l-.3-.92a2.208,2.208,0,0,1-.956-.05,2.148,2.148,0,0,1-.492-.209l-.385,1.179h-1.2l1.808-4.8h.918l1.808,4.8Zm-.581-1.782-.485-1.488-.432,1.324a2.044,2.044,0,0,0,.242.085,2.158,2.158,0,0,0,.675.078" transform="translate(-944.719 -1684.026)" fill="#002e40"/>
      <path id="Path_250" data-name="Path 250" d="M1094.19,1807.168a.184.184,0,0,0,.141-.071h.127v.989a2.111,2.111,0,0,1-2.091-.953l-.552-.713h-.3v1.667h-1.088v-4.8h2.2a1.681,1.681,0,0,1,1.865,1.568,1.548,1.548,0,0,1-1.342,1.533c.223.339.727.784,1.031.784Zm-.777-2.316a.706.706,0,0,0-.777-.678h-1.116v1.356h1.187a.668.668,0,0,0,.706-.678" transform="translate(-1018.371 -1684.026)" fill="#002e40"/>
      <path id="Path_251" data-name="Path 251" d="M1165.847,1808.087V1805.3a2.686,2.686,0,0,0-.833,1.533h-.848a2.685,2.685,0,0,0-.834-1.533v2.783h-1.087v-4.8h1.087c0,.749.756,1.4,1.257,2.218.5-.82,1.257-1.469,1.257-2.218h1.088v4.8Z" transform="translate(-1085.428 -1684.026)" fill="#002e40"/>
      <path id="Path_252" data-name="Path 252" d="M1243.514,1804.093a2.586,2.586,0,1,1,2.585,2.514,2.468,2.468,0,0,1-2.585-2.514m2.585,1.625a1.631,1.631,0,1,0-1.483-1.625,1.507,1.507,0,0,0,1.483,1.625" transform="translate(-1161.317 -1682.433)" fill="#002e40"/>
      <path id="Path_253" data-name="Path 253" d="M1334.934,1805.53v-2.247h1.088v4.8h-1.088c0-1.257-.96-2.521-1.893-3.531v3.531h-1.088v-4.8h1.088a15.135,15.135,0,0,1,1.893,2.247" transform="translate(-1243.9 -1684.026)" fill="#002e40"/>
      <path id="Path_254" data-name="Path 254" d="M1403.763,1803.284h1.229l1.109,2.246,1.109-2.246h1.229l-2.373,4.8h-1.229l.65-1.313Z" transform="translate(-1310.956 -1684.026)" fill="#002e40"/>
      <path id="Path_255" data-name="Path 255" d="M825.752,1901.167h-2.5v.864a2.187,2.187,0,0,0,.674.323,2.232,2.232,0,0,0,1.19,0v.89a2.238,2.238,0,0,1-1.19,0,2.188,2.188,0,0,1-.674-.323v2.159h-1.088v-4.8h3.588Z" transform="translate(-767.864 -1774.597)" fill="#002e40"/>
      <path id="Path_256" data-name="Path 256" d="M876.523,1905.081l-.3-.92a2.207,2.207,0,0,1-.956-.05,2.141,2.141,0,0,1-.492-.209l-.385,1.179h-1.2l1.808-4.8h.918l1.808,4.8Zm-.581-1.782-.485-1.488-.432,1.324a2.112,2.112,0,0,0,.917.163" transform="translate(-815.51 -1774.598)" fill="#002e40"/>
      <path id="Path_257" data-name="Path 257" d="M955.822,1904.161a.185.185,0,0,0,.141-.071h.127v.989a2.111,2.111,0,0,1-2.091-.953l-.552-.713h-.3v1.667h-1.088v-4.8h2.2a1.68,1.68,0,0,1,1.865,1.568,1.548,1.548,0,0,1-1.342,1.533c.223.339.727.784,1.031.784Zm-.777-2.316a.705.705,0,0,0-.777-.678h-1.116v1.356h1.187a.668.668,0,0,0,.706-.678" transform="translate(-889.164 -1774.597)" fill="#002e40"/>
      <path id="Path_258" data-name="Path 258" d="M1027.477,1905.08V1902.3a2.686,2.686,0,0,0-.833,1.533h-.848a2.685,2.685,0,0,0-.834-1.533v2.783h-1.088v-4.8h1.088c0,.749.756,1.4,1.257,2.218.5-.82,1.257-1.469,1.257-2.218h1.088v4.8Z" transform="translate(-956.22 -1774.597)" fill="#002e40"/>
      <path id="Path_259" data-name="Path 259" d="M1152.121,1899.037v1.131h-.127a1.878,1.878,0,0,0-1.568-.707c-.586,0-.918.19-.918.494,0,.989,2.953.1,2.953,2.077,0,1-.805,1.568-2.218,1.568a3.066,3.066,0,0,1-1.766-.466V1902h.127a2.008,2.008,0,0,0,1.639.707c.784,0,1.2-.219,1.2-.565,0-.989-2.953-.1-2.953-2.077,0-.954.706-1.5,1.935-1.5a2.828,2.828,0,0,1,1.7.466" transform="translate(-1072.571 -1773.004)" fill="#002e40"/>
      <path id="Path_260" data-name="Path 260" d="M1221.627,1898.571a2.68,2.68,0,0,1,1.554.466v1.131h-.127a1.8,1.8,0,0,0-1.427-.707,1.631,1.631,0,0,0,0,3.249,1.8,1.8,0,0,0,1.427-.707h.127v1.13a2.68,2.68,0,0,1-1.554.466,2.515,2.515,0,1,1,0-5.028" transform="translate(-1138.465 -1773.004)" fill="#002e40"/>
      <path id="Path_261" data-name="Path 261" d="M1293.079,1900.277v1.25c0,.714,1.187.29,2.034.487v-1.737h1.088v4.8h-1.088v-1.815c0-.713-1.187-.29-2.034-.487v2.3h-1.088v-4.8Z" transform="translate(-1206.585 -1774.597)" fill="#002e40"/>
      <path id="Path_262" data-name="Path 262" d="M1365.987,1901.085a2.586,2.586,0,1,1,2.585,2.514,2.468,2.468,0,0,1-2.585-2.514m2.585,1.625a1.631,1.631,0,1,0-1.484-1.625,1.507,1.507,0,0,0,1.484,1.625" transform="translate(-1275.681 -1773.004)" fill="#002e40"/>
      <path id="Path_263" data-name="Path 263" d="M1454.422,1901.085a2.586,2.586,0,1,1,2.585,2.514,2.468,2.468,0,0,1-2.585-2.514m2.585,1.625a1.631,1.631,0,1,0-1.483-1.625,1.507,1.507,0,0,0,1.483,1.625" transform="translate(-1358.261 -1773.004)" fill="#002e40"/>
      <path id="Path_264" data-name="Path 264" d="M1542.861,1900.277h1.088v3.913h2.02v.89h-3.108Z" transform="translate(-1440.844 -1774.597)" fill="#002e40"/>
      <path id="Path_265" data-name="Path 265" d="M1084.356,2001.594h-1.088V1997.9a1.965,1.965,0,0,1-.678.1v-.889c.5,0,.678,0,.678-.318h1.088Z" transform="translate(-1011.047 -1864.721)" fill="#002e40"/>
      <path id="Path_266" data-name="Path 266" d="M1121.768,1999.319c-1.264,0-2.077-.664-2.077-1.688s.813-1.688,2.077-1.688a1.841,1.841,0,0,1,2.09,1.808,5.088,5.088,0,0,1-1.618,3.108h-1.081c.332-.48.777-1.024,1.109-1.618a1.68,1.68,0,0,1-.5.078m0-.89c.6,0,.989-.311.989-.8s-.389-.8-.989-.8-.989.311-.989.8.388.8.989.8" transform="translate(-1045.692 -1863.929)" fill="#002e40"/>
      <path id="Path_267" data-name="Path 267" d="M1193.058,1997.6c0-1.526.819-2.514,2.091-2.514s2.091.989,2.091,2.514-.819,2.514-2.091,2.514-2.091-.989-2.091-2.514m2.091,1.624c.6,0,.989-.636.989-1.624s-.388-1.625-.989-1.625-.989.636-.989,1.625.389,1.624.989,1.624" transform="translate(-1114.202 -1863.128)" fill="#002e40"/>
      <path id="Path_268" data-name="Path 268" d="M1270.577,1996.427a1.163,1.163,0,0,1-.551,1,1.238,1.238,0,0,1,.763,1.137c0,.939-.812,1.546-2.077,1.546s-2.077-.607-2.077-1.546a1.238,1.238,0,0,1,.763-1.137,1.163,1.163,0,0,1-.551-1c0-.812.735-1.342,1.865-1.342s1.865.53,1.865,1.342m-1.865,2.8c.6,0,.989-.261.989-.657s-.389-.657-.989-.657-.989.261-.989.657.389.657.989.657m0-2.2c.473,0,.777-.2.777-.522s-.3-.523-.777-.523-.777.2-.777.523.3.522.777.522" transform="translate(-1182.908 -1863.128)" fill="#002e40"/>
      <path id="Path_269" data-name="Path 269" d="M809.223,518.333v1.25c0,.714,1.187.29,2.034.487v-1.737h1.088v4.8h-1.088v-1.815c0-.713-1.187-.289-2.034-.487v2.3h-1.088v-4.8Z" transform="translate(-754.764 -484.149)" fill="#002e40"/>
      <path id="Path_270" data-name="Path 270" d="M885.462,523.136l-.3-.92a2.2,2.2,0,0,1-.956-.05,2.14,2.14,0,0,1-.492-.209l-.385,1.179h-1.2l1.808-4.8h.918l1.808,4.8Zm-.581-1.782-.485-1.488-.432,1.324a2.093,2.093,0,0,0,.242.085,2.162,2.162,0,0,0,.675.078" transform="translate(-823.858 -484.149)" fill="#002e40"/>
      <path id="Path_271" data-name="Path 271" d="M964.76,522.217a.185.185,0,0,0,.141-.071h.127v.989a2.111,2.111,0,0,1-2.091-.953l-.552-.713h-.3v1.667H961v-4.8h2.2a1.68,1.68,0,0,1,1.865,1.568,1.548,1.548,0,0,1-1.342,1.533c.223.339.727.784,1.031.784Zm-.776-2.316a.706.706,0,0,0-.777-.678h-1.116v1.356h1.187a.668.668,0,0,0,.706-.678" transform="translate(-897.51 -484.149)" fill="#002e40"/>
      <path id="Path_272" data-name="Path 272" d="M1036.416,523.136v-2.783a2.687,2.687,0,0,0-.833,1.533h-.848a2.686,2.686,0,0,0-.833-1.533v2.783h-1.088v-4.8h1.088c0,.749.756,1.4,1.257,2.218.5-.819,1.257-1.469,1.257-2.218h1.088v4.8Z" transform="translate(-964.567 -484.149)" fill="#002e40"/>
      <path id="Path_273" data-name="Path 273" d="M1114.081,519.142a2.586,2.586,0,1,1,2.585,2.514,2.468,2.468,0,0,1-2.585-2.514m2.585,1.624a1.631,1.631,0,1,0-1.483-1.624,1.507,1.507,0,0,0,1.483,1.624" transform="translate(-1040.454 -482.556)" fill="#002e40"/>
      <path id="Path_274" data-name="Path 274" d="M1205.5,520.579v-2.246h1.088v4.8H1205.5c0-1.257-.96-2.521-1.893-3.532v3.532h-1.088v-4.8h1.088a15.109,15.109,0,0,1,1.893,2.246" transform="translate(-1123.035 -484.149)" fill="#002e40"/>
      <path id="Path_275" data-name="Path 275" d="M1274.328,518.333h1.229l1.109,2.246,1.109-2.246H1279l-2.373,4.8H1275.4l.65-1.314Z" transform="translate(-1190.09 -484.149)" fill="#002e40"/>
      <path id="Path_276" data-name="Path 276" d="M1399.809,518.333v1.25c0,.714,1.187.29,2.034.487v-1.737h1.088v4.8h-1.088v-1.815c0-.713-1.186-.289-2.034-.487v2.3h-1.088v-4.8Z" transform="translate(-1306.248 -484.149)" fill="#002e40"/>
      <rect id="Rectangle_394" data-name="Rectangle 394" width="1.088" height="4.803" transform="translate(97.372 34.184)" fill="#002e40"/>
      <path id="Path_277" data-name="Path 277" d="M1499.524,518.333h1.088v3.913h2.02v.89h-3.108Z" transform="translate(-1400.377 -484.149)" fill="#002e40"/>
      <path id="Path_278" data-name="Path 278" d="M1556.889,518.333h1.088v3.913H1560v.89h-3.108Z" transform="translate(-1453.944 -484.149)" fill="#002e40"/>
      <path id="Path_279" data-name="Path 279" d="M813.164,613.62a2.68,2.68,0,0,1,1.554.466v1.13h-.127a1.8,1.8,0,0,0-1.427-.707,1.631,1.631,0,0,0,0,3.249,1.8,1.8,0,0,0,1.427-.707h.127v1.13a2.679,2.679,0,0,1-1.554.466,2.515,2.515,0,1,1,0-5.029" transform="translate(-757.046 -573.127)" fill="#002e40"/>
      <path id="Path_280" data-name="Path 280" d="M879.073,620.129l-.3-.92a2.208,2.208,0,0,1-.956-.05,2.143,2.143,0,0,1-.492-.209l-.385,1.179h-1.2l1.808-4.8h.918l1.808,4.8Zm-.581-1.782-.485-1.488-.432,1.324a2.1,2.1,0,0,0,.242.085,2.161,2.161,0,0,0,.675.078" transform="translate(-817.892 -574.72)" fill="#002e40"/>
      <path id="Path_281" data-name="Path 281" d="M958.215,620.129v-2.783a2.687,2.687,0,0,0-.833,1.533h-.848a2.687,2.687,0,0,0-.833-1.533v2.783h-1.088v-4.8H955.7c0,.749.756,1.4,1.257,2.218.5-.82,1.257-1.469,1.257-2.218H959.3v4.8Z" transform="translate(-891.543 -574.72)" fill="#002e40"/>
      <path id="Path_282" data-name="Path 282" d="M1038.225,618.462a2.046,2.046,0,0,1-1.257-.424v2.09h-1.088v-4.8h2.2a1.681,1.681,0,0,1,1.865,1.568,1.6,1.6,0,0,1-1.723,1.568Zm-.071-.89a.668.668,0,0,0,.706-.678.706.706,0,0,0-.777-.678h-1.116v.071a1.271,1.271,0,0,0,1.187,1.286Z" transform="translate(-967.43 -574.72)" fill="#002e40"/>
      <path id="Path_283" data-name="Path 283" d="M1154.628,620.129v-2.783a2.687,2.687,0,0,0-.833,1.533h-.848a2.686,2.686,0,0,0-.833-1.533v2.783h-1.088v-4.8h1.088c0,.749.756,1.4,1.257,2.218.5-.82,1.257-1.469,1.257-2.218h1.088v4.8Z" transform="translate(-1074.952 -574.72)" fill="#002e40"/>
      <path id="Path_284" data-name="Path 284" d="M1235.879,616.216h-2.5v.864a2.183,2.183,0,0,0,.674.323,2.234,2.234,0,0,0,1.19,0v.89a2.238,2.238,0,0,1-1.19,0,2.189,2.189,0,0,1-.674-.323v1.269h2.5v.89h-3.588v-4.8h3.588Z" transform="translate(-1150.837 -574.72)" fill="#002e40"/>
      <path id="Path_285" data-name="Path 285" d="M1300.416,616.216h-2.5v.864a2.179,2.179,0,0,0,.674.323,2.235,2.235,0,0,0,1.19,0v.89a2.238,2.238,0,0,1-1.19,0,2.185,2.185,0,0,1-.674-.323v1.269h2.5v.89h-3.588v-4.8h3.588Z" transform="translate(-1211.101 -574.72)" fill="#002e40"/>
      <path id="Path_286" data-name="Path 286" d="M1364.031,616.216v3.913h-1.088v-3.913h-1.582v-.89h4.252v.89Z" transform="translate(-1271.361 -574.72)" fill="#002e40"/>
      <rect id="Rectangle_395" data-name="Rectangle 395" width="1.088" height="4.803" transform="translate(94.94 40.606)" fill="#002e40"/>
      <path id="Path_287" data-name="Path 287" d="M1465.77,617.572v-2.246h1.088v4.8h-1.088c0-1.257-.96-2.521-1.893-3.531v3.531h-1.088v-4.8h1.088a15.1,15.1,0,0,1,1.893,2.246" transform="translate(-1366.074 -574.72)" fill="#002e40"/>
      <path id="Path_288" data-name="Path 288" d="M1539.02,616.014v2.169a3.8,3.8,0,0,1-1.836.466,2.515,2.515,0,1,1,0-5.029,2.679,2.679,0,0,1,1.554.466v1.131h-.127a1.8,1.8,0,0,0-1.427-.706,1.629,1.629,0,0,0,.07,3.249,1.629,1.629,0,0,0,.678-.113V616.9h-.833v-.89Z" transform="translate(-1433.129 -573.127)" fill="#002e40"/>
      <path id="Path_289" data-name="Path 289" d="M1087.372,716.643h-1.088v-3.694a1.957,1.957,0,0,1-.678.1v-.89c.5,0,.678,0,.678-.318h1.088Z" transform="translate(-1013.864 -664.844)" fill="#002e40"/>
      <path id="Path_290" data-name="Path 290" d="M1126.648,711.476a1.164,1.164,0,0,1-.551,1,1.238,1.238,0,0,1,.763,1.137c0,.939-.812,1.547-2.077,1.547s-2.077-.607-2.077-1.547a1.238,1.238,0,0,1,.763-1.137,1.164,1.164,0,0,1-.551-1c0-.812.735-1.342,1.865-1.342s1.865.53,1.865,1.342m-1.865,2.8c.6,0,.989-.261.989-.657s-.389-.657-.989-.657-.989.261-.989.657.389.657.989.657m0-2.2c.473,0,.777-.2.777-.523s-.3-.523-.777-.523-.777.2-.777.523.3.523.777.523" transform="translate(-1048.508 -663.251)" fill="#002e40"/>
      <path id="Path_291" data-name="Path 291" d="M1197.957,712.522c1.264,0,2.077.664,2.077,1.688s-.812,1.688-2.077,1.688a1.841,1.841,0,0,1-2.091-1.808,5.091,5.091,0,0,1,1.617-3.108h1.081c-.332.48-.777,1.024-1.109,1.618a1.7,1.7,0,0,1,.5-.077Zm0,2.486c.6,0,.989-.311.989-.8s-.388-.8-.989-.8-.989.311-.989.8.388.8.989.8" transform="translate(-1116.824 -664.043)" fill="#002e40"/>
      <path id="Path_292" data-name="Path 292" d="M1270.324,711.84V713.8c0,.657.9.318,1.611.452V711.84h1.088v4.8h-1.088v-1.109c0-1.088-2.7.551-2.7-1.738V711.84Z" transform="translate(-1185.336 -664.844)" fill="#002e40"/>
      <path id="Path_293" data-name="Path 293" d="M279.546,1754.063l-1.36.993c-.776.566.627,1.521,1.085,2.6l1.891-1.38.864,1.184-5.226,3.814-.864-1.184,1.975-1.441c.776-.566-.627-1.521-1.085-2.6l-2.506,1.829-.864-1.184,5.226-3.814Z" transform="translate(-255.484 -1636.959)" fill="#fff"/>
      <path id="Path_294" data-name="Path 294" d="M339.148,1863.549l.659-1.126a2.967,2.967,0,0,1-.805-1.008,2.881,2.881,0,0,1-.23-.682l-1.532.668-1.075-1.209,6.456-2.477.822.925-3.22,6.119Zm1.275-2.181,1.065-1.82-1.72.75a2.817,2.817,0,0,0,.131.32,2.926,2.926,0,0,0,.525.75" transform="translate(-314.042 -1734.852)" fill="#fff"/>
      <path id="Path_295" data-name="Path 295" d="M415.888,1913.724a.251.251,0,0,0,.2.06l.125.117-.907.975a2.844,2.844,0,0,1-1.187-2.858l.11-1.21-.291-.271-1.529,1.644-1.072-1,4.407-4.736,2.173,2.022a2.264,2.264,0,0,1,.4,3.257,2.085,2.085,0,0,1-2.73.28,2.43,2.43,0,0,0,.3,1.719Zm1.36-3a.951.951,0,0,0-.144-1.382l-1.1-1.023-1.244,1.337,1.17,1.089a.9.9,0,0,0,1.318-.02" transform="translate(-384.24 -1780.358)" fill="#fff"/>
      <path id="Path_296" data-name="Path 296" d="M490.69,1977.787l2.277-2.978a3.622,3.622,0,0,0-2.146.958l-.907-.693a3.62,3.62,0,0,0,.362-2.322L488,1975.73l-1.164-.89,3.93-5.141,1.164.89c-.612.8-.335,2.115-.469,3.4,1.207-.467,2.548-.544,3.16-1.345l1.164.89-3.93,5.141Z" transform="translate(-454.735 -1839.423)" fill="#fff"/>
      <path id="Path_297" data-name="Path 297" d="M597.4,2052.073a3.484,3.484,0,1,1,1.22,4.7,3.326,3.326,0,0,1-1.22-4.7m1.842,3.678a2.2,2.2,0,1,0-.573-2.908,2.031,2.031,0,0,0,.573,2.908" transform="translate(-557.5 -1914.805)" fill="#fff"/>
      <path id="Path_298" data-name="Path 298" d="M692.36,2096.906l1.3-2.733,1.324.629-2.778,5.845-1.324-.629c.727-1.53.289-3.624-.261-5.393l-2.043,4.3-1.324-.629,2.778-5.845,1.324.629a20.382,20.382,0,0,1,1,3.828" transform="translate(-641.886 -1954.046)" fill="#fff"/>
      <path id="Path_299" data-name="Path 299" d="M801.46,2132.24l1.557.563.377,3.353,2.433-2.338,1.557.563-5.205,5-1.557-.562,1.425-1.367Z" transform="translate(-747.748 -1991.202)" fill="#fff"/>
      <path id="Path_300" data-name="Path 300" d="M867.869,2242.7l-.159-.2c.305-.157,1.354-.935.98-1.047a.666.666,0,1,1,.83-.446,4.19,4.19,0,0,1-1.651,1.69Z" transform="translate(-810.394 -2091.963)" fill="#fff"/>
      <path id="Path_301" data-name="Path 301" d="M962.835,2187.664l.556-2.975,1.441.269-1.188,6.362-1.441-.269c.311-1.665-.648-3.577-1.634-5.146l-.874,4.678-1.441-.269,1.188-6.362,1.44.269a20.386,20.386,0,0,1,1.952,3.443" transform="translate(-894.944 -2039.49)" fill="#fff"/>
      <path id="Path_302" data-name="Path 302" d="M1063.22,2206.01a3.483,3.483,0,1,1,3.189,3.664,3.325,3.325,0,0,1-3.189-3.664m3.289,2.47a2.2,2.2,0,1,0-1.81-2.346,2.03,2.03,0,0,0,1.81,2.346" transform="translate(-992.948 -2057.192)" fill="#fff"/>
      <path id="Path_303" data-name="Path 303" d="M1187.172,2213.933a.249.249,0,0,0,.189-.1l.171,0,.022,1.333a2.845,2.845,0,0,1-2.838-1.238l-.76-.948-.4.007.038,2.245-1.466.024-.108-6.47,2.969-.05a2.265,2.265,0,0,1,2.548,2.07,2.085,2.085,0,0,1-1.773,2.1c.308.452,1,1.04,1.406,1.033Zm-1.1-3.1a.951.951,0,0,0-1.062-.9l-1.5.025.031,1.827,1.6-.027a.9.9,0,0,0,.936-.929" transform="translate(-1103.897 -2062.632)" fill="#fff"/>
      <path id="Path_304" data-name="Path 304" d="M1278.642,2199.663l.568,5.242-1.457.158-.569-5.242-2.119.23-.129-1.192,5.7-.618.129,1.192Z" transform="translate(-1190.658 -2052.833)" fill="#fff"/>
      <path id="Path_305" data-name="Path 305" d="M1372.664,2180.267l.338,1.65c.193.941,1.645.061,2.817.092l-.47-2.293,1.435-.294,1.3,6.339-1.436.294-.491-2.4c-.193-.941-1.644-.061-2.817-.092l.623,3.039-1.435.295-1.3-6.339Z" transform="translate(-1280.576 -2035.26)" fill="#fff"/>
      <path id="Path_306" data-name="Path 306" d="M1525.145,2141.143a3.609,3.609,0,0,1,2.182-.11l.51,1.434-.162.058a2.426,2.426,0,0,0-2.129-.252,2.2,2.2,0,0,0,1.467,4.123,2.425,2.425,0,0,0,1.491-1.541l.162-.058.51,1.434a3.611,3.611,0,0,1-1.762,1.293,3.388,3.388,0,1,1-2.271-6.381" transform="translate(-1422.099 -1999.301)" fill="#fff"/>
      <path id="Path_307" data-name="Path 307" d="M1636.546,2114.145l-.893-.951a2.959,2.959,0,0,1-1.195.486,2.874,2.874,0,0,1-.719.027l.206,1.659-1.465.687-.543-6.893,1.12-.525,4.953,4.824Zm-1.729-1.841-1.443-1.537.231,1.862a2.674,2.674,0,0,0,.344-.034,2.907,2.907,0,0,0,.868-.291" transform="translate(-1524.024 -1969.16)" fill="#fff"/>
      <path id="Path_308" data-name="Path 308" d="M1698.273,2062.477a.249.249,0,0,0,.115-.179l.148-.087.678,1.146a2.844,2.844,0,0,1-3.078.329l-1.129-.448-.342.2,1.143,1.932-1.261.746-3.294-5.569,2.555-1.512a2.264,2.264,0,0,1,3.237.539,2.085,2.085,0,0,1-.5,2.7,2.429,2.429,0,0,0,1.733.2Zm-2.489-2.153a.95.95,0,0,0-1.366-.253l-1.294.765.93,1.572,1.376-.814a.9.9,0,0,0,.354-1.27" transform="translate(-1579.412 -1922.443)" fill="#fff"/>
      <path id="Path_309" data-name="Path 309" d="M1790.51,2001.974a3.484,3.484,0,1,1,4.813.658,3.326,3.326,0,0,1-4.813-.658m4.1-.306a2.2,2.2,0,1,0-2.907-.575,2.031,2.031,0,0,0,2.907.575" transform="translate(-1671.452 -1864.394)" fill="#fff"/>
      <path id="Path_310" data-name="Path 310" d="M1863.415,1957.21l1.094-.974,3.5,3.936,2.032-1.809.8.9-3.126,2.783Z" transform="translate(-1740.176 -1826.851)" fill="#fff"/>
      <rect id="Rectangle_396" data-name="Rectangle 396" width="1.465" height="6.47" transform="translate(126.917 127.007) rotate(-44.711)" fill="#fff"/>
      <path id="Path_311" data-name="Path 311" d="M1948.34,1838.253l-2.258-2.015.976-1.093,4.828,4.308-.975,1.094c-1.264-1.128-3.4-1.3-5.248-1.265l3.55,3.168-.976,1.093-4.828-4.308.976-1.094a20.384,20.384,0,0,1,3.956.112" transform="translate(-1814.873 -1713.777)" fill="#fff"/>
      <path id="Path_312" data-name="Path 312" d="M2033.372,1785.7l-1.239-.408a2.968,2.968,0,0,1-.817,1,2.894,2.894,0,0,1-.619.367l.974,1.359-.958,1.3-3.774-5.794.732-1,6.658,1.868Zm-2.4-.79-2-.66,1.094,1.525a2.773,2.773,0,0,0,.286-.195,2.928,2.928,0,0,0,.624-.671" transform="translate(-1892.873 -1664.64)" fill="#fff"/>
      <path id="Path_313" data-name="Path 313" d="M343.528,282.079a60.064,60.064,0,1,1-23.454,4.735,59.877,59.877,0,0,1,23.454-4.735m0-.9a61.151,61.151,0,1,0,61.151,61.151,61.151,61.151,0,0,0-61.151-61.151" transform="translate(-263.815 -262.7)" fill="#002e40"/>
      <path id="Path_314" data-name="Path 314" d="M94.7,17.1a77.619,77.619,0,0,1,30.2,149.1A77.619,77.619,0,0,1,64.5,23.2a77.111,77.111,0,0,1,30.2-6.1m0-1.195A78.794,78.794,0,1,0,173.5,94.7,78.794,78.794,0,0,0,94.7,15.908" transform="translate(-14.988 -14.988)" fill="#002e40"/>
    </g>
  </g>
</svg>
