<svg xmlns="http://www.w3.org/2000/svg" xmlns:xlink="http://www.w3.org/1999/xlink" width="258.368" height="61.57" viewBox="0 0 258.368 61.57">
  <defs>
    <clipPath id="clip-path">
      <rect id="Rectangle_104" data-name="Rectangle 104" width="258.368" height="61.57" fill="none"/>
    </clipPath>
  </defs>
  <g id="Group_211" data-name="Group 211" transform="translate(-184 -119)">
    <g id="Group_209" data-name="Group 209" transform="translate(184 119)" clip-path="url(#clip-path)">
      <path id="Path_62" data-name="Path 62" d="M70.53,33.866a5.411,5.411,0,0,1-.461-2.2V21.353q0-3.548-1.674-5.256a5.61,5.61,0,0,0-4.172-1.709,6.609,6.609,0,0,0-2.528.527,8.593,8.593,0,0,0-2.267,1.346A7.475,7.475,0,0,0,57.819,18.1a3.248,3.248,0,0,0-.559,1.938,6.464,6.464,0,0,0-1.9-4.237,5.516,5.516,0,0,0-3.81-1.413,5.631,5.631,0,0,0-2.432.527,7.459,7.459,0,0,0-2,1.378A10.489,10.489,0,0,0,45.6,18.1a8.852,8.852,0,0,0-.952,1.874v-4.4q0-1.117-.788-1.117a5.372,5.372,0,0,0-1.182.2L38.2,15.964a6.451,6.451,0,0,1,.619,3.569,4.817,4.817,0,0,1-1.46,3.175V31.6a4.861,4.861,0,0,1-.361,2.07,3.064,3.064,0,0,1-.821,1.117,2.294,2.294,0,0,1-.919.461,3.713,3.713,0,0,1-.657.1v1.117h7.751a2,2,0,0,0,1.74-.69,4.158,4.158,0,0,0,.559-2.2v-11.5a13.887,13.887,0,0,1,1.84-1.774,3.027,3.027,0,0,1,1.838-.788,1.459,1.459,0,0,1,1.282.854,6.939,6.939,0,0,1,.492,3.153V31.6a4.891,4.891,0,0,1-.361,2.07,2.866,2.866,0,0,1-.854,1.117,2.543,2.543,0,0,1-.952.461,3.713,3.713,0,0,1-.657.1v1.117h7.818a1.912,1.912,0,0,0,1.674-.69,4.158,4.158,0,0,0,.559-2.2v-11.5a14.132,14.132,0,0,1,1.84-1.774A3.027,3.027,0,0,1,61,19.513a1.455,1.455,0,0,1,1.282.854,6.933,6.933,0,0,1,.494,3.153V31.6a4.733,4.733,0,0,1-.427,2.267A2.978,2.978,0,0,1,61.4,34.95a2.435,2.435,0,0,1-1.38.394v1.117H72.829V35.344a2.64,2.64,0,0,1-1.38-.394,2.71,2.71,0,0,1-.919-1.084" transform="translate(33.206 13.81)" fill="#002e40"/>
      <path id="Path_63" data-name="Path 63" d="M26.277,40.806a3.059,3.059,0,0,1-.821-1.117,5.058,5.058,0,0,1-.361-2.134V15.662a5.064,5.064,0,0,1,.361-2.134,3.076,3.076,0,0,1,.821-1.117,2.281,2.281,0,0,1,.919-.461,3.689,3.689,0,0,1,.657-.1V10.735H15.043v1.117a3.689,3.689,0,0,1,.657.1,2.3,2.3,0,0,1,.921.461,3.1,3.1,0,0,1,.821,1.117,5.1,5.1,0,0,1,.361,2.134V25.688c-3.136-.727-7.478.762-7.751-1.613V15.662a5.064,5.064,0,0,1,.361-2.134,3.076,3.076,0,0,1,.821-1.117,2.281,2.281,0,0,1,.919-.461,3.679,3.679,0,0,1,.658-.1V10.735H0v1.117a3.689,3.689,0,0,1,.657.1,2.3,2.3,0,0,1,.921.461A3.121,3.121,0,0,1,2.4,13.528a5.1,5.1,0,0,1,.361,2.134V37.554A5.089,5.089,0,0,1,2.4,39.689a3.1,3.1,0,0,1-.821,1.117,1.949,1.949,0,0,1-.921.427A5.4,5.4,0,0,1,0,41.3v1.184H12.811V41.3h-.067a4.664,4.664,0,0,1-.623-.065,1.925,1.925,0,0,1-.888-.427,3.059,3.059,0,0,1-.821-1.117,5.058,5.058,0,0,1-.361-2.134V27.56c3.175.733,7.58-.8,7.751,1.707v8.288a5.089,5.089,0,0,1-.361,2.134,3.081,3.081,0,0,1-.821,1.117,1.949,1.949,0,0,1-.921.427,5.4,5.4,0,0,1-.657.065v1.184H27.852V41.3a5.4,5.4,0,0,1-.657-.065,1.935,1.935,0,0,1-.919-.427" transform="translate(0 10.304)" fill="#002e40"/>
      <path id="Path_64" data-name="Path 64" d="M57.139,19.381a4.621,4.621,0,0,0-1.019-3.547,3.964,3.964,0,0,0-3.185-1.444,5.3,5.3,0,0,0-2.332.592,13.8,13.8,0,0,0-2.3,1.411A10.6,10.6,0,0,0,46.431,18.2a7.722,7.722,0,0,0-1.117,1.774v-4.4q0-1.117-.788-1.117a5.4,5.4,0,0,0-1.182.2l-8.08,2.365v1.117a2.43,2.43,0,0,1,1.38.394,2.93,2.93,0,0,1,.952,1.115,4.954,4.954,0,0,1,.427,2.3V31.6a4.864,4.864,0,0,1-.363,2.07,3.1,3.1,0,0,1-.821,1.117,2.281,2.281,0,0,1-.919.461c-.2.043-.365.071-.49.084a2.368,2.368,0,0,1-1.119-.38,2.943,2.943,0,0,1-.952-1.084,4.715,4.715,0,0,1-.427-2.267V23.126a9.565,9.565,0,0,0-.788-4.139,7.609,7.609,0,0,0-2.1-2.693,7.81,7.81,0,0,0-3.022-1.478,14.591,14.591,0,0,0-3.547-.427,10.433,10.433,0,0,0-2.824.427,10.861,10.861,0,0,0-2.824,1.248,8.272,8.272,0,0,0-2.2,1.97,4.233,4.233,0,0,0-.888,2.661,2.78,2.78,0,0,0,.888,2.234,3.959,3.959,0,0,0,2.857.919,5.041,5.041,0,0,0,1.313-.2,4.927,4.927,0,0,0,1.346-.59,3.434,3.434,0,0,0,1.052-1.052,2.828,2.828,0,0,0,.427-1.576,4.8,4.8,0,0,1,.952-3.253,2.7,2.7,0,0,1,2-1.084.829.829,0,0,1,.821.559,3.066,3.066,0,0,1,.2,1.315,8.853,8.853,0,0,1-.229,1.609,8.073,8.073,0,0,1-.459,1.444,4.616,4.616,0,0,1-1.709,2.038,12.319,12.319,0,0,1-2.463,1.215q-1.346.491-2.759.919a11.334,11.334,0,0,0-2.561,1.117,5.652,5.652,0,0,0-1.872,1.807,5.352,5.352,0,0,0-.723,2.955,4.407,4.407,0,0,0,.592,2.266,5.479,5.479,0,0,0,1.542,1.709,7.145,7.145,0,0,0,2.136,1.05,7.84,7.84,0,0,0,2.3.363,15.831,15.831,0,0,0,2.824-.263,8.708,8.708,0,0,0,2.957-1.184,3.853,3.853,0,0,0,1.97,1.184,9.769,9.769,0,0,0,2.234.263H43.015a2,2,0,0,0,1.74-.69,4.158,4.158,0,0,0,.559-2.2v-11.5a4.621,4.621,0,0,1,1.346-1.084,2.705,2.705,0,0,1,1.15-.3,2.427,2.427,0,0,1,1.182.327c.394.219.79.451,1.184.69a13.267,13.267,0,0,0,1.28.69A3.54,3.54,0,0,0,53,22.732a4.776,4.776,0,0,0,2.759-.854,3.165,3.165,0,0,0,1.38-2.5M24.064,34.359a2.52,2.52,0,0,1-2.036-.952,4.259,4.259,0,0,1-.919-2.4,4.315,4.315,0,0,1,.361-2.1A7.168,7.168,0,0,1,22.586,27.2,16.408,16.408,0,0,1,24.1,25.687a20.467,20.467,0,0,0,1.544-1.511v8.147c0,.306.01.58.031.821a6.145,6.145,0,0,0,.1.69,3.487,3.487,0,0,1-1.709.525" transform="translate(13.26 13.811)" fill="#002e40"/>
      <path id="Path_65" data-name="Path 65" d="M74.065,20.728A9.939,9.939,0,0,0,71.8,17.245a9.652,9.652,0,0,0-3.351-2.134,11.38,11.38,0,0,0-4.072-.723,11.648,11.648,0,0,0-4.106.723,9.568,9.568,0,0,0-3.383,2.134,9.89,9.89,0,0,0-2.267,3.483,12.667,12.667,0,0,0-.821,4.7,12.657,12.657,0,0,0,.821,4.7A9.872,9.872,0,0,0,56.888,33.6a9.513,9.513,0,0,0,3.383,2.134,11.648,11.648,0,0,0,4.106.723,11.38,11.38,0,0,0,4.072-.723A9.6,9.6,0,0,0,71.8,33.6a9.921,9.921,0,0,0,2.266-3.483,12.657,12.657,0,0,0,.821-4.7,12.667,12.667,0,0,0-.821-4.7M67.1,32.355q-1.149,2.4-2.726,2.4-1.643,0-2.759-2.4a16.943,16.943,0,0,1-1.117-6.93,16.74,16.74,0,0,1,1.117-6.865q1.117-2.4,2.759-2.4,1.576,0,2.726,2.4a16.318,16.318,0,0,1,1.15,6.865,16.515,16.515,0,0,1-1.15,6.93" transform="translate(51.635 13.81)" fill="#002e40"/>
      <path id="Path_66" data-name="Path 66" d="M80.722,33.866a3.222,3.222,0,0,1-.986,1.084,2.43,2.43,0,0,1-1.38.394v1.117H91.232V35.344a2.43,2.43,0,0,1-1.38-.394,2.943,2.943,0,0,1-.952-1.084,4.536,4.536,0,0,1-.427-2.2V21.351q0-3.545-1.807-5.254a6.925,6.925,0,0,0-4.958-1.709,6.066,6.066,0,0,0-2.5.527,7.642,7.642,0,0,0-2.1,1.378A10.949,10.949,0,0,0,75.532,18.1a8.13,8.13,0,0,0-.986,1.874v-4.4q0-1.117-.788-1.117a5.4,5.4,0,0,0-1.184.2L64.5,17.016v1.117a2.424,2.424,0,0,1,1.378.394,2.924,2.924,0,0,1,.954,1.117,4.968,4.968,0,0,1,.425,2.3V31.6a4.887,4.887,0,0,1-.361,2.068,3.064,3.064,0,0,1-.821,1.117,2.294,2.294,0,0,1-.919.461,3.713,3.713,0,0,1-.657.1v1.117h7.751a2,2,0,0,0,1.74-.69,4.157,4.157,0,0,0,.559-2.2v-11.5A10.036,10.036,0,0,1,76.583,20.3a4.15,4.15,0,0,1,2.3-.788,2.029,2.029,0,0,1,1.611.854,5.238,5.238,0,0,1,.69,3.153V31.6a4.445,4.445,0,0,1-.461,2.265" transform="translate(61.902 13.81)" fill="#002e40"/>
      <path id="Path_67" data-name="Path 67" d="M92.907,14.389v1.182a2.949,2.949,0,0,1,2.43,2.136,7.4,7.4,0,0,1-.263,4.5l-2.955,9.131L88.243,19.316a4.254,4.254,0,0,1-.329-2.267,2.059,2.059,0,0,1,.592-1.084,1.855,1.855,0,0,1,1.248-.394V14.389h-13.2v1.182a3.6,3.6,0,0,1,1.509.329,4.428,4.428,0,0,1,1.315,1.084,7.015,7.015,0,0,1,1.182,2.265L84.5,31.6a14.422,14.422,0,0,0,1.742,3.91,2.492,2.492,0,0,0,2.068.952h2.169l-.79,2.43a15.2,15.2,0,0,1-.8,1.913c-1.235-1.362-3.694-2.089-6.375-1.711-3.622.512-6.275,2.844-5.928,5.209s3.563,3.869,7.185,3.357c4.212-.357,6.4-3.939,6.975-4.925a18.419,18.419,0,0,0,1.444-3.187l6.5-20.166a6.707,6.707,0,0,1,1.182-2.038,7.072,7.072,0,0,1,1.248-1.117,5.191,5.191,0,0,1,1.511-.657V14.389Z" transform="translate(73.47 13.811)" fill="#002e40"/>
      <path id="Path_68" data-name="Path 68" d="M14.212,8.262h4.8V20.139h3.3V8.262h4.8v-2.7H14.212Z" transform="translate(13.641 5.339)" fill="#007198"/>
      <path id="Path_69" data-name="Path 69" d="M30.988,10.836c-2.571-.6-6.173.686-6.173-1.48V5.562h-3.3V20.139h3.3V13.15c2.573.6,6.173-.686,6.173,1.48v5.509h3.3V5.562h-3.3Z" transform="translate(20.648 5.339)" fill="#007198"/>
      <path id="Path_70" data-name="Path 70" d="M29.316,20.139h10.89v-2.7h-7.59V13.587a6.675,6.675,0,0,0,2.046.982,6.794,6.794,0,0,0,3.612,0v-2.7a6.794,6.794,0,0,1-3.612,0,6.675,6.675,0,0,1-2.046-.982V8.263h7.59v-2.7H29.316Z" transform="translate(28.137 5.339)" fill="#007198"/>
      <path id="Path_71" data-name="Path 71" d="M38.219,8.262h4.8V20.139h3.3V8.262h4.8v-2.7H38.219Z" transform="translate(36.681 5.339)" fill="#007198"/>
      <path id="Path_72" data-name="Path 72" d="M52.853,5.562c-4.545,0-7.845,3.071-7.845,7.286s3.3,7.288,7.845,7.288S60.7,17.066,60.7,12.848s-3.3-7.286-7.845-7.286m0,12a4.457,4.457,0,0,1-4.5-4.709,4.506,4.506,0,1,1,9,0,4.456,4.456,0,0,1-4.5,4.709" transform="translate(43.197 5.339)" fill="#007198"/>
      <path id="Path_73" data-name="Path 73" d="M70.1,5.386A6.358,6.358,0,0,0,65.274,7.4l-.813-1.674H60.816L63.174,10.6l-2.55,4.931-4.01-9.8H52.971l6.216,14.577h2.787L65,14.348l2.895,5.958h2.787l3.708-7.137c1.887-3.645.537-7.782-4.288-7.782m.815,7.053-1.629,3.216-2.422-4.974c.943-1.693,1.758-2.614,3.044-2.614,1.864,0,2.293,1.842,1.007,4.372" transform="translate(50.84 5.17)" fill="#007198"/>
      <path id="Path_74" data-name="Path 74" d="M74.249,12.378A45.689,45.689,0,0,0,68.5,5.562H65.2V20.137h3.3V9.419c2.83,3.067,5.746,6.9,5.746,10.718h3.3V5.562h-3.3Z" transform="translate(62.58 5.339)" fill="#007198"/>
      <path id="Path_75" data-name="Path 75" d="M83.168,5.562c-4.545,0-7.845,3.071-7.845,7.286s3.3,7.288,7.845,7.288,7.845-3.071,7.845-7.288-3.3-7.286-7.845-7.286m0,12a4.457,4.457,0,0,1-4.5-4.709,4.506,4.506,0,1,1,9,0,4.456,4.456,0,0,1-4.5,4.709" transform="translate(72.293 5.339)" fill="#007198"/>
      <path id="Path_76" data-name="Path 76" d="M95.189,8.263v-2.7H84.3V20.139h3.3V13.587a6.675,6.675,0,0,0,2.046.982,6.816,6.816,0,0,0,3.612,0v-2.7a6.816,6.816,0,0,1-3.612,0,6.675,6.675,0,0,1-2.046-.982V8.263Z" transform="translate(80.908 5.339)" fill="#007198"/>
      <path id="Path_77" data-name="Path 77" d="M131.229,61.57h-.286a33.339,33.339,0,0,1-19.349-7.034c-11.326-8.707-17.066-23.854-17.066-45.02A2.17,2.17,0,0,1,96.7,7.347a34.387,34.387,0,0,0,15.659-3.4A41.246,41.246,0,0,1,131.086,0a41.017,41.017,0,0,1,18.683,3.939,34.413,34.413,0,0,0,15.706,3.408,2.172,2.172,0,0,1,2.169,2.169c0,21.164-5.74,36.311-17.064,45.02a33.351,33.351,0,0,1-19.351,7.034m-.143-60.12A39.961,39.961,0,0,0,112.924,5.28,35.636,35.636,0,0,1,96.7,8.8a.72.72,0,0,0-.719.719c0,20.693,5.552,35.452,16.5,43.871a31.805,31.805,0,0,0,18.465,6.732h.286A31.833,31.833,0,0,0,149.7,53.388c10.947-8.421,16.5-23.18,16.5-43.871a.718.718,0,0,0-.719-.719A35.612,35.612,0,0,1,149.2,5.272,39.779,39.779,0,0,0,131.086,1.45" transform="translate(90.725 0.001)" fill="#007198"/>
      <path id="Path_78" data-name="Path 78" d="M163.936,8.45c-16.156-.137-16.325-7.343-33.914-7.343S112.18,8.311,96.108,8.45a.478.478,0,0,0-.474.476A94.4,94.4,0,0,0,96.343,20.4h.006c-.006-.051-.014-.1-.022-.153h0l.053.414a154.341,154.341,0,0,1,19.576-2.336V23.2a158.911,158.911,0,0,0-18.808,2.2c.047.239.1.47.147.706a158.419,158.419,0,0,1,18.661-2.179v4.882c-4.394.268-8.643.668-12.609,1.2l-.543.057,0,.016q-2.149.294-4.178.641a.364.364,0,0,0-.167.084c.061.21.123.417.186.625a.366.366,0,0,0,.1,0q2-.341,4.129-.633l.084.807a4.675,4.675,0,0,0,2.663,3.743c-1.776.21-3.5.441-5.16.7a.358.358,0,0,0-.155.069c.09.218.18.431.272.645,4.707-.733,9.924-1.266,15.37-1.6v4.874c-4.594.28-9.021.7-13.113,1.26.057.1.114.194.171.29l0,0c9.56,16.313,25.207,16.754,26.867,16.754.094,0,.143,0,.143,0s.049,0,.143,0c1.662,0,17.3-.441,26.859-16.742l0,0c.057-.1.116-.192.172-.29-4.115-.566-8.57-.99-13.191-1.27V35.152q2.119.129,4.188.3l-2.216,2.43,10.271.98-1.7-2.773c1.685.2,3.328.423,4.909.668.092-.214.184-.427.274-.647a.372.372,0,0,0-.151-.065c-1.772-.274-3.614-.523-5.513-.743l-2.3-3.767L148.8,34.78q-2.363-.2-4.8-.351v-4.9a162.871,162.871,0,0,1,17.289,1.913.335.335,0,0,0,.061.006c.014,0,.025-.006.039-.006.063-.21.125-.419.186-.631a.374.374,0,0,0-.163-.08A163.967,163.967,0,0,0,144,28.808V23.921a158.5,158.5,0,0,1,18.745,2.185c.049-.235.1-.468.147-.707A159.036,159.036,0,0,0,144,23.2V18.316a154.842,154.842,0,0,1,19.66,2.34c.018-.137.035-.274.051-.412h0l-.018.137.006,0a94.622,94.622,0,0,0,.707-11.457.48.48,0,0,0-.474-.476m-12.27,24.08,3.439,5.621-7.88-.753Zm-43.63,2.512c-.137.014-.278.022-.415.022a3.937,3.937,0,0,1-3.921-3.537l-.084-.811,7.853-.821.084.811a3.951,3.951,0,0,1-3.516,4.337m2.407-.192a4.679,4.679,0,0,0,1.84-4.221l-.088-.831q1.861-.15,3.765-.268v4.905q-2.807.173-5.517.415M155.2,41.772a33.232,33.232,0,0,1-7.974,8.878,30,30,0,0,1-17.056,6.22c-.059,0-.094,0-.1,0h-.082c-.01,0-.045,0-.1,0a29.99,29.99,0,0,1-17.054-6.22,33.155,33.155,0,0,1-7.982-8.89c3.52-.433,7.259-.768,11.116-1.005v1.73a6.37,6.37,0,0,1-.455,2.681,3.841,3.841,0,0,1-1.031,1.4,2.428,2.428,0,0,1-1.154.537,6.669,6.669,0,0,1-.825.082v1.484h16.084V47.187H128.5a5.8,5.8,0,0,1-.784-.082,2.415,2.415,0,0,1-1.113-.537,3.819,3.819,0,0,1-1.031-1.4,6.34,6.34,0,0,1-.455-2.681v-2.1c3.236-.065,6.5-.065,9.732,0v2.1a6.374,6.374,0,0,1-.453,2.681,3.863,3.863,0,0,1-1.031,1.4,2.444,2.444,0,0,1-1.154.537,6.738,6.738,0,0,1-.825.082v1.484h16.082V47.187a6.7,6.7,0,0,1-.825-.082,2.427,2.427,0,0,1-1.154-.537,3.819,3.819,0,0,1-1.031-1.4A6.343,6.343,0,0,1,144,42.486V40.757c3.884.237,7.649.574,11.194,1.015m-20.35-18.226v3.432l-4.823-3.21-4.909,3.267V23.548c3.236-.069,6.5-.069,9.732,0m-9.732-.719v-4.88c3.236-.067,6.5-.069,9.732,0v4.88c-3.236-.067-6.5-.065-9.732,0m4.909,1.809,6.173,4.108-6.173,4.108-6.173-4.108Zm-4.909,9.428V30.453l4.909,3.265,4.823-3.208v3.553c-3.236-.065-6.5-.065-9.732,0m9.732.719v4.882c-3.236-.065-6.5-.065-9.732,0v-4.88c3.236-.067,6.5-.067,9.732,0M162.3,19.668A160.527,160.527,0,0,0,144,17.595V15a6.34,6.34,0,0,1,.453-2.679,3.862,3.862,0,0,1,1.031-1.4,2.853,2.853,0,0,1,1.154-.576,4.6,4.6,0,0,1,.825-.125v-1.4H131.382v1.4a4.628,4.628,0,0,1,.825.125,2.877,2.877,0,0,1,1.154.576,3.907,3.907,0,0,1,1.031,1.4A6.37,6.37,0,0,1,134.845,15v2.226c-3.236-.067-6.5-.065-9.732,0V15a6.336,6.336,0,0,1,.455-2.679,3.862,3.862,0,0,1,1.031-1.4,2.841,2.841,0,0,1,1.154-.576,4.6,4.6,0,0,1,.825-.125v-1.4H112.494v1.4a4.579,4.579,0,0,1,.825.125,2.853,2.853,0,0,1,1.154.576,3.884,3.884,0,0,1,1.031,1.4A6.367,6.367,0,0,1,115.959,15v2.6a161.373,161.373,0,0,0-18.216,2.07A91.718,91.718,0,0,1,97.112,9.9a37.617,37.617,0,0,0,15.608-3.673,37.659,37.659,0,0,1,17.3-3.653A37.464,37.464,0,0,1,147.276,6.22,37.613,37.613,0,0,0,162.933,9.9a92.229,92.229,0,0,1-.631,9.766" transform="translate(91.787 1.063)" fill="#002e40"/>
      <path id="Path_79" data-name="Path 79" d="M126.4,17.141l3.439,5.621-7.88-.753Z" transform="translate(117.053 16.452)" fill="#ffb941"/>
      <path id="Path_80" data-name="Path 80" d="M104.128,20.944c-.137.014-.278.022-.415.022a3.936,3.936,0,0,1-3.922-3.537l-.084-.811,7.853-.821.084.811a3.953,3.953,0,0,1-3.516,4.337" transform="translate(95.696 15.161)" fill="#97bf26"/>
      <path id="Path_81" data-name="Path 81" d="M116.2,13.113l6.173,4.108L116.2,21.33l-6.173-4.11Z" transform="translate(105.605 12.586)" fill="#007198"/>
    </g>
  </g>
</svg>
