<svg xmlns="http://www.w3.org/2000/svg" width="59.664" height="90.784" viewBox="0 0 59.664 90.784">
  <path id="Path_345" data-name="Path 345" d="M389.839,0a29.866,29.866,0,0,0-29.832,29.833c0,10.59,4.845,23.856,14.4,39.433a188.3,188.3,0,0,0,14.313,20.188l1.116,1.33,1.115-1.33a188.388,188.388,0,0,0,14.314-20.188c9.558-15.577,14.4-28.843,14.4-39.433A29.867,29.867,0,0,0,389.839,0m.831,46.278V68.5h-2.217V46.278a17.293,17.293,0,1,1,2.217,0" transform="translate(-360.007)" fill="#97bf26"/>
</svg>
