<svg xmlns="http://www.w3.org/2000/svg" width="83.344" height="90.783" viewBox="0 0 83.344 90.783">
  <path id="Path_348" data-name="Path 348" d="M431.234,167.141l-7.049-9.738H354.939l-7.049,9.738s7.1,3.656,7.1,17.263-7.71,15.945-5.969,32.316c2.117,19.9,37.927,31.466,40.539,31.466s38.421-11.563,40.538-31.466c1.741-16.371-5.969-18.709-5.969-32.316s7.1-17.263,7.1-17.263m-37.885,60.206c11.245-12.586-2.579-16.093-3.144-27.751-13.976,18.879-1.911,27.751-1.911,27.751s-16.3-2.579-15.887-16.919,21.148-32.186,21.148-32.186-.606,10.395,9.079,21.354c7.84,8.872,4.229,25.481-9.285,27.751" transform="translate(-347.89 -157.403)" fill="#97bf26"/>
</svg>
