<svg xmlns="http://www.w3.org/2000/svg" width="54" height="54" viewBox="0 0 54 54">
  <g id="Group_333" data-name="Group 333" transform="translate(-1011 -726)">
    <rect id="Rectangle_120" data-name="Rectangle 120" width="54" height="54" rx="27" transform="translate(1011 726)" fill="#fff"/>
    <g id="Icon_feather-calendar" data-name="Icon feather-calendar" transform="translate(1023.75 739.167)">
      <path id="Path_145" data-name="Path 145" d="M6.667,6H21.833A2.167,2.167,0,0,1,24,8.167V23.333A2.167,2.167,0,0,1,21.833,25.5H6.667A2.167,2.167,0,0,1,4.5,23.333V8.167A2.167,2.167,0,0,1,6.667,6Z" transform="translate(0 -0.833)" fill="none" stroke="#000" stroke-linecap="round" stroke-linejoin="round" stroke-width="1.5"/>
      <path id="Path_146" data-name="Path 146" d="M24,3V7.333" transform="translate(-5.417 0)" fill="none" stroke="#000" stroke-linecap="round" stroke-linejoin="round" stroke-width="1.5"/>
      <path id="Path_147" data-name="Path 147" d="M12,3V7.333" transform="translate(-2.083 0)" fill="none" stroke="#000" stroke-linecap="round" stroke-linejoin="round" stroke-width="1.5"/>
      <path id="Path_148" data-name="Path 148" d="M4.5,15H24" transform="translate(0 -3.333)" fill="none" stroke="#000" stroke-linecap="round" stroke-linejoin="round" stroke-width="1.5"/>
    </g>
  </g>
</svg>
