<svg xmlns="http://www.w3.org/2000/svg" width="45.658" height="45.658" viewBox="0 0 45.658 45.658">
  <path id="Icon_awesome-check-circle" data-name="Icon awesome-check-circle" d="M46.221,23.392A22.829,22.829,0,1,1,23.392.563,22.829,22.829,0,0,1,46.221,23.392ZM20.751,35.48,37.689,18.542a1.473,1.473,0,0,0,0-2.083l-2.083-2.083a1.473,1.473,0,0,0-2.083,0L19.71,28.189,13.26,21.74a1.473,1.473,0,0,0-2.083,0L9.095,23.823a1.473,1.473,0,0,0,0,2.083l9.574,9.574a1.473,1.473,0,0,0,2.083,0Z" transform="translate(-0.563 -0.563)" fill="#97bf27"/>
</svg>
