<svg xmlns="http://www.w3.org/2000/svg" width="46.303" height="46.303" viewBox="0 0 46.303 46.303">
  <path id="Icon_map-health" data-name="Icon map-health" d="M47.023,16.154a.967.967,0,0,0-.965-.965H33.518a.967.967,0,0,1-.965-.965V1.685A.967.967,0,0,0,31.588.72H16.154a.967.967,0,0,0-.965.965v12.54a.967.967,0,0,1-.965.965H1.685a.967.967,0,0,0-.965.965V31.588a.967.967,0,0,0,.965.965h12.54a.967.967,0,0,1,.965.965v12.54a.967.967,0,0,0,.965.965H31.588a.967.967,0,0,0,.965-.965V33.518a.967.967,0,0,1,.965-.965h12.54a.967.967,0,0,0,.965-.965Z" transform="translate(-0.72 -0.72)" fill="#0c7b9e"/>
</svg>
