<svg xmlns="http://www.w3.org/2000/svg" width="50.161" height="46.303" viewBox="0 0 50.161 46.303">
  <path id="Icon_ionic-md-business" data-name="Icon ionic-md-business" d="M29.059,14.785V4.5H3.375V50.8H53.536V14.785ZM13.648,45.654H8.512V40.505h5.137Zm0-10.285H8.512V30.22h5.137Zm0-10.285H8.512V19.934h5.137Zm0-10.3H8.512V9.637h5.137ZM23.922,45.654H18.785V40.505h5.137Zm0-10.285H18.785V30.22h5.137Zm0-10.285H18.785V19.934h5.137Zm0-10.3H18.785V9.637h5.137ZM48.4,45.654H29.059V40.505H34.2V35.368H29.059V30.22H34.2V25.071H29.059V19.934H48.4ZM43.866,25.083H38.729v5.149h5.137Zm0,10.285H38.729v5.149h5.137Z" transform="translate(-3.375 -4.5)" fill="#0c7b9e"/>
</svg>
