<svg xmlns="http://www.w3.org/2000/svg" width="49.538" height="34.676" viewBox="0 0 49.538 34.676">
  <path id="Icon_awesome-money-bill-wave" data-name="Icon awesome-money-bill-wave" d="M48.079,3.988a22.921,22.921,0,0,0-9.01-1.738c-9.534,0-19.067,4.825-28.6,4.825A23.485,23.485,0,0,1,3.3,6.013a2.647,2.647,0,0,0-.8-.125A2.463,2.463,0,0,0,0,8.35V32.907a2.462,2.462,0,0,0,1.458,2.28,22.909,22.909,0,0,0,9.01,1.739c9.534,0,19.067-4.826,28.6-4.826a23.485,23.485,0,0,1,7.171,1.062,2.647,2.647,0,0,0,.8.125,2.463,2.463,0,0,0,2.5-2.462V6.27A2.465,2.465,0,0,0,48.079,3.988ZM3.715,10.007A26.936,26.936,0,0,0,8.57,10.7a4.96,4.96,0,0,1-4.855,3.989Zm0,22.06v-3.7a4.952,4.952,0,0,1,4.931,4.753A18.7,18.7,0,0,1,3.715,32.067Zm21.053-5.048c-3.42,0-6.192-3.328-6.192-7.431s2.773-7.431,6.192-7.431,6.192,3.327,6.192,7.431S28.188,27.019,24.769,27.019Zm21.053,2.15a26.613,26.613,0,0,0-4.2-.653,4.943,4.943,0,0,1,4.2-3.814Zm0-18.276A4.944,4.944,0,0,1,41.5,6.129a18.606,18.606,0,0,1,4.32.98Z" transform="translate(0 -2.25)" fill="#0c7b9e"/>
</svg>
