<svg xmlns="http://www.w3.org/2000/svg" width="53.941" height="34.676" viewBox="0 0 53.941 34.676">
  <path id="Icon_ionic-md-people" data-name="Icon ionic-md-people" d="M39.028,22.323A7.313,7.313,0,0,0,46.383,15.1a7.357,7.357,0,0,0-14.711,0A7.312,7.312,0,0,0,39.028,22.323Zm-19.615,0A7.312,7.312,0,0,0,26.769,15.1a7.357,7.357,0,0,0-14.711,0A7.313,7.313,0,0,0,19.413,22.323Zm0,5.3c-5.762,0-17.163,2.769-17.163,8.428v6.5H36.926v-6.5C36.926,30.39,25.175,27.621,19.413,27.621Zm19.615,1.325a13.085,13.085,0,0,0-2.1.12c2.821,2.047,3.853,3.371,3.853,6.983v6.5H56.191v-6.5C56.191,30.39,44.79,28.946,39.028,28.946Z" transform="translate(-2.25 -7.875)" fill="#0c7b9e"/>
</svg>
