<svg xmlns="http://www.w3.org/2000/svg" width="50.161" height="46.303" viewBox="0 0 50.161 46.303">
  <g id="Icon_ionic-ios-briefcase" data-name="Icon ionic-ios-briefcase" transform="translate(-3.375 -4.5)">
    <path id="Path_154" data-name="Path 154" d="M7.234,42.76H49.678A3.854,3.854,0,0,0,53.536,38.9V15.75H3.375V38.9A3.854,3.854,0,0,0,7.234,42.76Z" transform="translate(0 8.043)" fill="#0c7b9e"/>
    <path id="Path_155" data-name="Path 155" d="M49.678,12.217h-.965v-.965a.967.967,0,0,0-.965-.965H43.89a.967.967,0,0,0-.965.965v.965H39.549V8.359A3.87,3.87,0,0,0,35.691,4.5H21.221a3.87,3.87,0,0,0-3.859,3.859v3.859H13.986v-.965a.967.967,0,0,0-.965-.965H9.163a.967.967,0,0,0-.965.965v.965H7.234a3.854,3.854,0,0,0-3.859,3.859V20.9H53.536V16.076A3.854,3.854,0,0,0,49.678,12.217Zm-13.5,0H20.739V8.841a.967.967,0,0,1,.965-.965h13.5a.967.967,0,0,1,.965.965Z" fill="#0c7b9e"/>
  </g>
</svg>
