<svg xmlns="http://www.w3.org/2000/svg" width="51" height="51" viewBox="0 0 51 51">
  <g id="Group_718" data-name="Group 718" transform="translate(-202.707 -4.202)">
    <g id="Group_333" data-name="Group 333" transform="translate(202.791 4.694)">
      <rect id="Rectangle_120" data-name="Rectangle 120" width="51" height="51" rx="25.5" transform="translate(-0.084 -0.492)" fill="#fff"/>
    </g>
    <path id="Icon_ionic-ios-call" data-name="Icon ionic-ios-call" d="M23.484,19.816a16.428,16.428,0,0,0-3.432-2.3c-1.029-.494-1.405-.484-2.133.041-.606.438-1,.845-1.7.692a10.114,10.114,0,0,1-3.406-2.52,10.042,10.042,0,0,1-2.52-3.406c-.148-.7.26-1.09.692-1.7.524-.728.54-1.1.041-2.133a16.1,16.1,0,0,0-2.3-3.432c-.748-.748-.916-.586-1.329-.438a7.562,7.562,0,0,0-1.217.647A3.671,3.671,0,0,0,4.726,6.817c-.29.626-.626,1.792,1.085,4.837a26.99,26.99,0,0,0,4.745,6.329h0l.005.005.005.005h0A27.1,27.1,0,0,0,16.9,22.739c3.045,1.711,4.211,1.375,4.837,1.085a3.608,3.608,0,0,0,1.543-1.461,7.562,7.562,0,0,0,.647-1.217C24.069,20.733,24.237,20.565,23.484,19.816Z" transform="translate(214.217 15.196)"/>
  </g>
</svg>
